<svg id="Capa_1" enable-background="new 0 0 496.98 496.98" height="512" viewBox="0 0 496.98 496.98" width="512" xmlns="http://www.w3.org/2000/svg"><g><path d="m102.397 249.078 7.108-22.454c1.918-6.061-.796-12.653-6.464-15.53-21.659-10.994-51.425-15.307-79.683-9.179-11.65 2.526-19.582 11.169-22.315 21.249l47.428 39.938z" fill="#c76d33"/><path d="m394.583 249.078-7.108-22.454c-1.918-6.061.796-12.653 6.464-15.53 21.659-10.994 51.425-15.307 79.683-9.179 11.65 2.526 19.582 11.169 22.315 21.249l-44.465 36.032z" fill="#df8a57"/><path d="m92.504 280.332 9.893-31.254c-14.065-7.82-31.612-14.673-51.129-19.458-17.874-4.382-35.086-6.462-50.213-6.452-2.512 9.264-.645 19.739 6.776 27.799 19.584 21.273 46.41 34.873 70.45 38.346 6.291.909 12.304-2.92 14.223-8.981z" fill="#a05423"/><path d="m404.476 280.332-9.893-31.254c14.065-7.82 31.612-14.673 51.129-19.458 17.874-4.382 35.086-6.462 50.213-6.452 2.512 9.264.645 19.739-6.776 27.799-19.584 21.273-46.41 34.873-70.45 38.346-6.291.909-12.304-2.92-14.223-8.981z" fill="#c76d33"/><path d="m115.091 60.37-5.779-39.164c-2.128-14.423-22.154-16.352-26.996-2.6l-22.891 65.008c-8.674 24.634-1.441 52.068 18.252 69.222l68.717 59.859c7.049 6.14 16.976 7.739 25.596 4.121l3.702-1.554c16.643-6.985 28.852-21.624 32.735-39.251l.196-.891c1.929-8.759-1.077-17.873-7.841-23.765l-68.632-59.784c-9.223-8.035-15.273-19.1-17.059-31.201z" fill="#ffeab7"/><path d="m381.889 60.37 5.779-39.164c2.128-14.423 22.154-16.352 26.996-2.6l22.891 65.009c8.674 24.634 1.441 52.068-18.252 69.222l-68.717 59.859c-7.049 6.14-16.976 7.739-25.596 4.121l-3.702-1.554c-16.643-6.985-28.852-21.624-32.735-39.251l-.196-.891c-1.929-8.759 1.078-17.873 7.841-23.765l68.632-59.785c9.223-8.035 15.273-19.1 17.059-31.201z" fill="#fff8e6"/><path d="m214.217 144.032c54.749-4.038 109.498 1.6 164.248 16.915 11.793 3.299 21.017 12.523 24.316 24.316 19.191 68.603 23.188 137.206 11.991 205.809-7.575 46.412-44.034 82.872-90.447 90.447-25.278 4.126-50.556 6.189-75.834 6.189l-72.132-24.848-60.517-164.958 30.179-112.411z" fill="#eaaa83"/><path d="m177.93 291.919c0-53.37 13.123-103.668 36.288-147.874-31.901 2.353-63.802 7.979-95.703 16.903-11.793 3.299-21.017 12.523-24.316 24.316-19.191 68.603-23.188 137.206-11.991 205.809 7.575 46.413 44.034 82.872 90.447 90.447 24.127 3.938 48.255 5.974 72.382 6.153-42.051-54.047-67.107-121.971-67.107-195.754z" fill="#df8a57"/><path d="m189.148 207.845c2.804.769 5.757 1.18 8.806 1.18 4.158 0 8.137-.766 11.804-2.164 3.418-1.302 7.3.191 8.913 3.475 5.408 11.007 16.726 18.585 29.819 18.585 13.093 0 24.41-7.578 29.819-18.585 1.613-3.283 5.495-4.777 8.913-3.475 3.668 1.397 7.646 2.164 11.804 2.164 18.344 0 33.215-14.871 33.215-33.214v-27.366c0-18.344-14.871-33.214-33.214-33.214-3.994 0-7.823.705-11.369 1.998-5.759 2.099-12.168.519-16.675-3.636-5.915-5.452-13.813-8.783-22.492-8.783-4.012 0-7.857.712-11.416 2.016l-22.104 17.858-36.005 57.157z" fill="#c76d33"/><path d="m237.077 106.832c-4.141 1.517-7.898 3.828-11.079 6.76-4.507 4.155-10.916 5.735-16.675 3.636-3.547-1.293-7.375-1.998-11.369-1.998-18.344 0-33.214 14.871-33.214 33.214v27.365c0 15.295 10.342 28.167 24.411 32.026 10.008-36.726 26.395-70.822 47.926-101.003z" fill="#a05423"/><path d="m184.283 355.565c17.568-13.428 39.899-21.465 64.207-21.465 56.593 0 102.47 43.562 102.47 97.298s-45.877 56.31-102.47 56.31c-1.155 0-2.306-.001-3.452-.004l-49.497-14.1-24.616-84.009z" fill="#fff8e6"/><path d="m184.287 355.571c-23.332 17.834-38.267 45.173-38.267 75.827 0 52.646 44.037 56.184 99.042 56.305-29.641-38.085-50.84-83.063-60.775-132.132z" fill="#ffeab7"/><ellipse cx="290.944" cy="424.407" fill="#5d6a85" rx="29.471" ry="22.045" transform="matrix(.549 -.836 .836 .549 -223.51 434.73)"/><path d="m224.465 412.309c-7.33-11.167-19.079-16.951-28.683-14.972l-.003.008c-2.096.432-4.092 1.228-5.915 2.425-10.178 6.681-11.188 23.128-2.257 36.734 8.292 12.632 22.235 18.368 32.334 13.78l.011.004c.776-.353 1.53-.768 2.257-1.244 10.178-6.682 11.188-23.128 2.256-36.735z" fill="#475066"/><g fill="#3b4456"><path d="m180.24 332.574c-4.142 0-7.5-3.357-7.5-7.5 0-6.712-5.46-12.172-12.172-12.172s-12.171 5.46-12.171 12.172c0 4.143-3.358 7.5-7.5 7.5s-7.5-3.357-7.5-7.5c0-14.982 12.189-27.172 27.171-27.172s27.172 12.189 27.172 27.172c0 4.143-3.358 7.5-7.5 7.5z"/><path d="m356.083 332.574c-4.142 0-7.5-3.357-7.5-7.5 0-6.712-5.46-12.172-12.171-12.172s-12.172 5.46-12.172 12.172c0 4.143-3.358 7.5-7.5 7.5s-7.5-3.357-7.5-7.5c0-14.982 12.189-27.172 27.172-27.172s27.171 12.189 27.171 27.172c0 4.143-3.358 7.5-7.5 7.5z"/></g></g></svg>