<svg id="Layer_1" enable-background="new 0 0 512 512" height="512" viewBox="0 0 512 512" width="512" xmlns="http://www.w3.org/2000/svg"><g><g fill="#f25f3a"><path d="m221.286 266.9c-3.975 2.133-7.402 5.091-11.846 6.513-.199.064-.405.128-.605.185-2.368.682-4.743.931-7.032.718-1.692-.156-3.342-.576-4.913-1.259-.007 0-.007-.007-.014-.007-1.636-.718-3.193-1.728-4.622-3.043-.292-.27-.583-.548-.86-.839-3.15-3.193-5.767-7.352-8.974-10.623-.22-.221-.448-.448-.676-.661 3.52-3.541 7.751-5.902 12.458-7.139.633.185 1.265.398 1.898.64 1.316.498 2.588 1.088 3.826 1.756h.007c.199.107.405.213.604.334.462.256.917.519 1.365.789-1.337.121-2.489.512-3.442 1.116-.953.597-1.714 1.408-2.275 2.339-1.607 2.631-1.685 6.272-.256 9.23.036.078.071.149.107.22.341.676.761 1.308 1.266 1.877.846.967 1.92 1.77 3.214 2.311.156.071.32.135.484.192.69.242 1.393.405 2.098.491 2.368.292 4.729-.292 6.698-1.572 1.045-.683 1.977-1.564 2.738-2.617.619-.86 1.173-2.048 1.493-3.299.156-.569.249-1.152.291-1.721.078.05.15.1.228.149 1.429.938 2.944 1.891 4.522 2.759.724.414 1.464.798 2.218 1.161z"/><path d="m330.257 257.883c-.1.092-.199.192-.299.292-3.385 3.321-6.08 7.68-9.351 10.993-.277.292-.569.569-.86.839-1.429 1.315-2.986 2.325-4.622 3.043-.007 0-.007.007-.014.007-1.571.683-3.221 1.102-4.913 1.259-2.29.213-4.665-.036-7.032-.718-.199-.057-.405-.121-.604-.185-4.444-1.422-7.871-4.38-11.846-6.513.512-.249 1.017-.505 1.514-.775 1.828-.967 3.584-2.062 5.227-3.143.071-.05.149-.1.22-.149.05.675.178 1.372.377 2.041.334 1.138.846 2.197 1.408 2.979.768 1.052 1.699 1.934 2.745 2.617 1.962 1.28 4.33 1.863 6.698 1.572.697-.085 1.408-.249 2.098-.491.164-.057.327-.121.483-.192 1.294-.541 2.361-1.344 3.207-2.311.505-.569.931-1.202 1.266-1.877.043-.071.078-.142.114-.22 1.387-2.866 1.358-6.371-.1-8.974-.583-1.045-1.394-1.941-2.432-2.595-.953-.604-2.112-.995-3.449-1.116.455-.27.91-.533 1.372-.789.199-.121.405-.228.604-.334h.007c1.237-.669 2.51-1.259 3.825-1.756.633-.242 1.266-.455 1.899-.64 4.707 1.235 8.938 3.595 12.458 7.136z"/></g><g fill="#e6864e"><path d="m165.254 284.733c-4.416 1.223-8.817 2.489-13.219 3.69-8.995 2.446-18.004 4.622-27.305 5.632-7.8.846-15.658 1.216-23.486.932-4.906-.178-11.007-.711-15.196-4.124-.135-.114-.27-.228-.398-.341.107-.313.206-.633.32-.946.562-.462 1.124-.917 1.685-1.358 7.615-6.087 15.743-11.014 24.283-14.705 2.873-1.237 5.788-2.339 8.753-3.299 14.228-4.608 28.244-4.743 42.664-3.605.213.22.427.434.64.647.455 4.658.839 9.322 1.081 14.001.057 1.158.121 2.317.178 3.476z"/><path d="m426.35 290.521c-4.188 3.719-10.531 4.281-15.594 4.466-7.829.284-15.686-.086-23.487-.932-8.078-.875-15.935-2.631-23.757-4.679-5.596-1.472-11.164-3.086-16.767-4.643.057-1.159.121-2.318.178-3.477.242-4.679.626-9.343 1.081-14.001.213-.213.427-.427.64-.647 14.421-1.138 28.436-1.003 42.664 3.605 1.849.597 3.683 1.252 5.497 1.97 9.734 3.797 18.957 9.18 27.54 16.034.562.441 1.123.896 1.685 1.358.114.313.214.634.32.946z"/><path d="m319.968 315.416c-1.294-2.467-2.965-4.8-5.006-6.99-10.581-11.356-25.904-18.872-40.716-22.839-6.066-1.628-12.152-2.588-18.246-2.987-6.094.398-12.181 1.358-18.246 2.987-14.812 3.968-30.135 11.484-40.716 22.839-1.785 1.92-3.285 3.947-4.508 6.072-2.987 5.241-4.266 11.114-3.89 17.556.512 8.782 2.894 17.677 5.255 26.117 1.941 6.947 4.167 13.951 6.947 20.657.448 1.088.917 2.169 1.401 3.243.292.661.597 1.322.91 1.977 2.155 4.544 5.212 8.113 10.474 8.725 1.934.228 3.868.1 5.781-.22.37-.057.732-.128 1.095-.199 1.586-.32 3.15-.754 4.686-1.209 8.078-2.41 16.411-5.98 24.845-7.843 1.984-.441 3.975-.789 5.966-1.003 1.991.213 3.982.562 5.966 1.003 8.433 1.863 16.767 5.433 24.845 7.843 1.536.455 3.1.889 4.686 1.209.363.071.725.142 1.095.199 1.913.32 3.847.448 5.781.22 5.262-.611 8.32-4.181 10.474-8.725.313-.654.619-1.316.91-1.977.484-1.074.953-2.155 1.401-3.243 2.78-6.705 5.006-13.709 6.947-20.657 2.361-8.44 4.743-17.336 5.255-26.117.355-6.065-.761-11.632-3.392-16.638zm-42.316 17.819c1.671-3.719 4.323-6.99 7.573-9.443 2.389-1.806 6.876-4.75 9.784-2.332 2.66 2.218 1.351 6.698.604 9.478-.96 3.605-2.538 7.033-4.913 9.87-.135.206-.263.42-.405.619-2.012 2.944-4.807 7.047-8.718 7.402-8.163.746-5.795-11.441-3.925-15.594zm-60.661-11.775c2.908-2.418 7.395.526 9.784 2.332 3.249 2.453 5.902 5.724 7.573 9.443 1.87 4.152 4.238 16.34-3.925 15.593-3.911-.355-6.705-4.458-8.718-7.402-.142-.199-.27-.412-.405-.619-2.375-2.837-3.954-6.264-4.913-9.87-.747-2.779-2.056-7.259.604-9.477z"/><path d="m191.684 248.526c1.216.22 2.418.526 3.605.896.654.206 1.309.434 1.956.683 5.319 2.019 10.31 5.269 15.06 8.348.235.114.441.256.626.405.512.327 1.024.661 1.529.981 2.432 1.55 5.674 3.747 9.081 5.276.348.156.697.306 1.052.448 3.385 1.351 6.862 1.927 9.806.441 4.928-2.489 5.539-8.832 4.743-14.335-.306-2.098-.818-4.082-1.38-5.674-4.835-13.78-19.469-23.885-32.823-28.386-9.03-3.051-18.538-3.648-27.334-1.244-.526.142-1.045.299-1.564.462-4.018 2.041-7.701 4.65-10.737 7.822-.299.313-.59.626-.882.946-3.577 4.032-6.143 8.903-7.16 14.605-.092.519-.171 1.038-.228 1.557-.092.732-.149 1.458-.178 2.183-.05 1.216-.021 2.425.078 3.619.036.491.092.974.156 1.458.761 5.639 3.136 10.993 6.634 15.501.043.05.078.1.114.142.292.078.576.164.867.249.107-.377.228-.747.363-1.116 2.759-7.921 9.72-14.043 18.659-15.416 2.51-.384 4.949-.334 7.324.036.213.028.427.063.633.113z"/><path d="m347.294 264.909c.292-.085.576-.171.868-.249.036-.043.071-.092.114-.142 3.498-4.508 5.873-9.862 6.634-15.501.064-.484.121-.967.156-1.458.1-1.195.128-2.403.078-3.619-.028-.725-.085-1.451-.178-2.183-.057-.519-.135-1.038-.228-1.557-1.017-5.703-3.584-10.574-7.16-14.605-.292-.32-.583-.633-.882-.946-3.036-3.172-6.72-5.781-10.737-7.822-.519-.164-1.038-.32-1.564-.462-8.796-2.403-18.303-1.806-27.334 1.244-13.354 4.501-27.988 14.605-32.823 28.386-.562 1.593-1.074 3.577-1.38 5.674-.796 5.504-.185 11.846 4.743 14.335 2.944 1.486 6.421.91 9.806-.441.356-.142.704-.292 1.052-.448 3.406-1.529 6.648-3.726 9.08-5.276.505-.32 1.01-.654 1.522-.981.192-.149.398-.292.633-.405 4.75-3.079 9.742-6.328 15.06-8.348.647-.249 1.301-.476 1.956-.683 1.187-.37 2.389-.676 3.605-.896.206-.05.42-.085.633-.114 2.375-.37 4.814-.42 7.324-.036 8.938 1.372 15.899 7.495 18.658 15.416.136.37.257.74.364 1.117z"/><path d="m291.376 397.679c-.107 1.173-.277 2.538-.548 3.996-.825 4.501-.235 4.622-5.333 10.666-5.091 6.044-14.335 5.809-23.935 7.111-9.599 1.301-29.63-1.778-35.44-6.52-3.136-2.56-4.572-7.153-5.255-11.292-.583-3.52-.619-6.713-.668-8.021 0 0 14.456-4.743 14.812-4.864.356-.114 20.152-5.447 21.097-5.568.946-.121 8.889 1.778 12.444 2.723 3.555.953 22.989 7.708 22.989 7.708s.057 1.622-.163 4.061z"/></g><g fill="#ffe2ab"><path d="m170.203 201.162c-1.842 1.529-3.449 3.321-4.707 5.376-.412.661-.789 1.351-1.123 2.069-1.877 4.018-2.382 9.201-1.166 13.759.014.057.036.121.05.178.05.178.1.356.156.533-.014.014-.028.028-.042.043-.064.064-.071.135-.043.192-4.423 4.643-7.495 10.659-8.469 16.746-.064.398-.121.803-.171 1.202-11.242-2.503-22.093-6.599-32.375-12.316-15.16-8.433-28.108-19.633-39.052-31.749-21.396-23.686-36.94-50.507-47.329-76.61-2.012-5.049-3.84-10.097-5.49-15.139-1.472-4.501-2.802-9.002-3.975-13.496.156 0 .32 0 .476.014 1.493.078 3.022.583 4.252 1.408 3.179 2.14 5.518 5.703 7.9 8.632 4.259 5.234 8.476 10.503 12.721 15.736 8.753 10.794 17.656 21.431 27.298 31.451 18.303 19.021 39.365 35.895 64.238 45.409 8.47 3.241 17.628 5.602 26.851 6.562z"/><path d="m485.533 91.949c-.156.597-.313 1.194-.477 1.785-2.417 8.945-5.418 17.897-8.988 26.85-10.389 26.103-25.933 52.925-47.329 76.61-10.943 12.117-23.892 23.316-39.052 31.749-10.282 5.717-21.133 9.813-32.375 12.316-.05-.398-.107-.804-.171-1.202-.896-5.603-3.57-11.142-7.445-15.615-.327-.384-.676-.761-1.024-1.131.029-.057.021-.128-.043-.192-.014-.014-.028-.029-.042-.043.071-.235.142-.476.206-.711.192-.711.341-1.436.441-2.169.583-3.975-.021-8.199-1.607-11.59-1.372-2.944-3.399-5.418-5.831-7.445 9.223-.96 18.381-3.321 26.85-6.563 24.873-9.514 45.935-26.388 64.238-45.409 9.642-10.019 18.545-20.656 27.298-31.451 4.245-5.233 8.462-10.502 12.721-15.736 2.382-2.93 4.721-6.492 7.9-8.632.917-.619 2.005-1.06 3.122-1.266.107-.022.22-.043.327-.057.427-.07.854-.105 1.281-.098z"/></g><g fill="#b35a26"><path d="m425.177 287.186c-9.87-8.838-20.977-15.473-32.617-19.533-13.183-4.608-27.959-6.762-41.662-3.683 2.005-2.603 3.598-5.525 4.715-8.625.747-2.069 1.287-4.202 1.586-6.385.071 0 .142 0 .213-.007 13.404-.256 26.985.711 39.436 6.748 8.099 3.925 15.651 10.268 21.41 18.488 2.759 3.924 5.106 8.276 6.919 12.997z"/><path d="m161.101 263.97c-13.702-3.079-28.478-.924-41.662 3.683-11.64 4.06-22.747 10.695-32.617 19.533 1.742-4.537 3.982-8.739 6.599-12.543 5.809-8.44 13.482-14.947 21.73-18.943 12.451-6.037 26.032-7.004 39.436-6.748.071.007.142.007.213.007.149 1.067.356 2.133.612 3.179 1.06 4.281 3.001 8.341 5.689 11.832z"/><path d="m270.897 251.384c-1.266 8.597.405 18.118 10.246 18.075 2.652-.014 5.297-.718 7.843-1.778.142-.057.284-.121.427-.178 6.4 6.073 17.663 10.638 26.054 7.104 7.21-3.036 10.495-10.453 15.665-15.8.114-.128.235-.249.356-.37-.249-.327-.512-.654-.796-.967-2.866-3.299-6.663-5.838-10.815-7.224 1.102-.221 2.204-.356 3.292-.413.555-.028 1.102-.036 1.65-.021h.007c.491.007.988.036 1.472.071 3.939.334 7.651 1.685 10.83 3.826.206.135.398.27.597.412 3.328 2.396 6.037 5.667 7.779 9.528.213.469.405.946.59 1.436.021.057.043.121.064.178.157.42.299.846.427 1.273.007.014.007.028.014.043-.007.064-.021.135-.028.206-.014.1-.021.199-.036.299-.654 5.703-1.152 11.427-1.536 17.165-.043.676-.085 1.351-.128 2.027-.875 14.299-1.059 28.663-1.287 42.92-.206 13.368-2.439 26.217-12.102 36.115-5.234 5.368-11.477 9.087-18.004 12.373 3.513-8.938 6.393-18.111 8.547-27.469.057-.235.107-.476.164-.718 1.913-8.327 3.69-17.272 2.283-25.79-1.294-7.815-5.909-14.222-11.697-19.427-11.967-10.751-27.682-18.324-44.178-21.737-.007-.007-.014-.007-.021-.007-4.16-.86-8.362-1.458-12.572-1.771-4.209.313-8.412.91-12.572 1.771-.007 0-.014 0-.021.007-16.497 3.413-32.211 10.986-44.178 21.737-5.788 5.205-10.403 11.612-11.697 19.427-1.451 8.76.477 17.976 2.446 26.508.007.021.007.036.014.057v.007c2.154 9.336 5.027 18.488 8.533 27.405-6.528-3.285-12.771-7.004-18.004-12.373-9.663-9.898-11.896-22.747-12.102-36.115-.228-14.257-.412-28.62-1.287-42.92-.043-.675-.085-1.351-.128-2.027-.384-5.738-.882-11.462-1.536-17.165-.014-.1-.021-.199-.036-.299-.007-.071-.021-.142-.028-.206.007-.014.007-.028.014-.043.128-.427.27-.853.427-1.273.021-.057.042-.121.064-.178.185-.491.377-.967.59-1.436 1.742-3.861 4.451-7.132 7.779-9.528.199-.142.391-.277.597-.412 3.179-2.14 6.89-3.491 10.83-3.826.512-.043 1.038-.064 1.557-.071.519-.014 1.045-.007 1.572.021 1.088.057 2.19.192 3.292.413-4.153 1.387-7.95 3.925-10.815 7.224-.284.313-.548.64-.796.967.121.121.242.242.356.37 5.169 5.347 8.455 12.764 15.665 15.8 8.391 3.534 19.654-1.031 26.054-7.104.142.057.285.121.427.178 2.546 1.059 5.191 1.763 7.843 1.778 9.841.043 11.512-9.479 10.247-18.075-.555-3.868-1.721-7.559-2.994-10.097-6.193-12.337-19.135-21.489-31.934-25.954-9.258-3.235-19.768-3.591-29.068-.477-1.629.541-3.214 1.188-4.75 1.948-2.396 1.074-4.636 2.524-6.663 4.252-.014.014-.028.021-.043.036-.384.306-.761.626-1.13.96-1.65-7.687 2.261-15.871 9.386-20.585.185-.121.377-.242.569-.363.412-.256.832-.505 1.258-.739 11.349-6.307 24.83-4.245 37.146-2.403 1.778.263 3.555.519 5.333.754.014.028.043.043.078.05 12.387 1.671 25.172 2.93 37.708 2.809 12.536.121 25.321-1.138 37.708-2.809.036-.007.064-.021.078-.05 1.778-.235 3.555-.491 5.333-.754 12.316-1.842 25.798-3.904 37.146 2.403.427.235.846.483 1.258.739.192.121.384.242.569.363 7.125 4.714 11.036 12.899 9.386 20.585-.37-.334-.747-.654-1.131-.96-.014-.014-.028-.021-.043-.036-2.026-1.728-4.266-3.178-6.663-4.252-1.536-.761-3.122-1.408-4.75-1.948-9.301-3.114-19.81-2.759-29.068.477-12.799 4.465-25.741 13.617-31.934 25.954-1.278 2.539-2.444 6.229-2.999 10.097z"/></g><g fill="#30281a"><path d="m485.76 91.088c-1.13-.092-2.304.057-3.349.455-2.901 1.095-5.034 3.591-6.997 5.866-2.737 3.185-5.454 6.399-8.163 9.606-19.106 22.584-37.786 46.092-61.401 64.21-11.505 8.831-24.148 16.347-37.701 21.581-9.194 3.555-18.438 5.888-27.952 7.118-3.84-2.737-8.44-4.522-12.977-5.439-10.922-2.211-22.029.17-32.873 1.714-12.65 1.799-25.492 2.859-38.348 3.214-12.856-.356-25.698-1.415-38.348-3.214-10.844-1.543-21.951-3.925-32.873-1.714-4.537.917-9.137 2.702-12.977 5.439-9.514-1.23-18.758-3.562-27.952-7.118-13.553-5.233-26.196-12.749-37.701-21.581-23.615-18.118-42.294-41.626-61.401-64.21-2.709-3.207-5.425-6.421-8.163-9.606-1.963-2.275-4.096-4.771-6.997-5.866-1.045-.398-2.219-.548-3.349-.455-.213.014-.427.043-.64.078.057.27.121.547.185.825 5.041 22.171 13.972 44.392 26.637 66.072 15.025 25.712 35.695 52.982 65.098 70.602 11.221 6.727 23.963 12.195 36.997 14.826-.05 1.294-.021 2.588.1 3.876-14.691-1.166-29.509-.398-43.169 7.224-12.102 6.748-22.754 18.644-26.757 34.551-.028.107-.057.213-.086.327-.092.384-.178.768-.27 1.159.05.064.1.128.157.192.121.157.256.313.391.462.128.149.27.292.412.441v.007c1.927 1.991 4.323 3.378 6.826 4.081 8.391 2.368 17.833 1.643 26.359 1.159 15.459-.868 32.019-3.25 46.88-9.884.462 9.99.768 19.995.718 30-.05 10.239-.576 20.735 1.984 30.754 2.354 9.215 7.665 16.994 14.982 23.01 5.084 4.181 10.815 7.537 16.845 10.225 2.425 5.952 5.39 12.06 12.323 13.382 2.396.462 4.849.441 7.31.107.206 4.245.22 8.511 1.571 12.564 2.112 6.321 7.31 9.5 13.539 10.993.768.185 1.543.356 2.325.512 6.222 1.316 12.678 1.97 19.042 2.304 6.364-.334 12.821-.988 19.042-2.304.782-.156 1.557-.327 2.325-.512 6.229-1.493 11.427-4.672 13.539-10.993 1.351-4.053 1.365-8.319 1.572-12.564 2.46.334 4.913.356 7.31-.107 6.933-1.322 9.898-7.431 12.323-13.382 6.03-2.688 11.761-6.044 16.845-10.225 7.317-6.016 12.628-13.795 14.982-23.01 2.56-10.019 2.034-20.514 1.984-30.754-.05-10.005.256-20.01.718-30 14.861 6.634 31.422 9.016 46.881 9.884 8.526.483 17.969 1.209 26.359-1.159 2.503-.704 4.899-2.09 6.826-4.081v-.007c.285-.292.555-.59.804-.903.057-.064.107-.128.156-.192-.092-.391-.178-.775-.27-1.159-.028-.114-.057-.22-.085-.327-4.003-15.907-14.655-27.803-26.757-34.551-13.66-7.623-28.478-8.391-43.169-7.224.121-1.287.149-2.581.1-3.876 13.034-2.631 25.776-8.099 36.997-14.826 29.403-17.62 50.073-44.89 65.098-70.602 12.301-21.062 21.083-42.628 26.189-64.166.156-.633.306-1.273.448-1.906.064-.278.128-.555.185-.825-.212-.035-.426-.063-.639-.078zm-363.448 137.855c-15.16-8.433-28.108-19.633-39.052-31.749-21.396-23.686-36.94-50.507-47.329-76.61-3.804-9.55-6.969-19.099-9.464-28.635 1.643-.014 3.363.505 4.728 1.422 3.179 2.14 5.518 5.703 7.9 8.632 4.259 5.234 8.476 10.503 12.721 15.736 8.753 10.794 17.656 21.431 27.298 31.451 18.303 19.021 39.365 35.895 64.238 45.409 8.469 3.242 17.627 5.603 26.85 6.563-2.432 2.027-4.458 4.501-5.831 7.445-1.877 4.018-2.382 9.201-1.166 13.759.064.235.135.476.206.711-.014.014-.028.028-.042.043-.064.064-.071.135-.043.192-4.423 4.643-7.495 10.659-8.469 16.746-.064.398-.121.803-.171 1.202-11.241-2.504-22.092-6.6-32.374-12.317zm-7.16 26.757c12.451-6.037 26.032-7.004 39.436-6.748.071.007.142.007.213.007.761 5.44 2.958 10.666 6.3 15.011-13.702-3.079-28.478-.924-41.662 3.683-11.64 4.06-22.747 10.695-32.617 19.533 5.604-14.612 16.363-25.69 28.33-31.486zm9.578 38.355c-7.8.846-15.658 1.216-23.486.932-4.906-.178-11.007-.711-15.196-4.124-.135-.114-.27-.228-.398-.341.107-.313.206-.633.32-.946.562-.462 1.124-.917 1.685-1.358 10.182-8.135 21.275-14.2 33.036-18.004 14.228-4.608 28.244-4.743 42.664-3.605.213.22.427.434.64.647.455 4.658.839 9.322 1.081 14.001.057 1.159.121 2.318.178 3.477-13.447 3.725-26.673 7.821-40.524 9.321zm40.339-30.263c-.135.37-.256.74-.363 1.116-.292-.085-.576-.171-.867-.249-.036-.043-.071-.092-.114-.142-3.499-4.508-5.874-9.862-6.634-15.501-.064-.484-.121-.967-.156-1.458-.1-1.195-.128-2.403-.078-3.619.028-.725.085-1.451.178-2.183.057-.519.135-1.038.228-1.557 1.017-5.703 3.584-10.574 7.16-14.605.292-.32.583-.633.882-.946 3.036-3.172 6.719-5.781 10.737-7.822.519-.164 1.038-.32 1.564-.462 8.796-2.403 18.303-1.806 27.334 1.244 13.354 4.501 27.988 14.605 32.823 28.386.562 1.593 1.074 3.577 1.38 5.674.796 5.504.185 11.846-4.743 14.335-2.944 1.486-6.421.91-9.806-.441-.356-.142-.704-.292-1.052-.448-3.406-1.529-6.649-3.726-9.081-5.276-.505-.32-1.017-.654-1.529-.981-.185-.149-.391-.292-.626-.405-4.75-3.079-9.742-6.328-15.06-8.348-.647-.249-1.301-.476-1.956-.683-1.187-.37-2.389-.676-3.605-.896-.206-.05-.42-.085-.633-.114-2.375-.37-4.814-.42-7.324-.036-8.939 1.374-15.9 7.496-18.659 15.417zm33.391-8.412c-3.634 2.297-4.472 7.559-2.531 11.569.036.078.071.149.107.22.341.676.761 1.308 1.266 1.877.846.967 1.92 1.77 3.214 2.311.156.071.32.135.484.192.69.242 1.393.405 2.098.491 2.368.292 4.729-.292 6.698-1.572 1.045-.683 1.977-1.564 2.738-2.617.903-1.244 1.664-3.186 1.785-5.02.078.05.15.1.228.149 2.091 1.372 4.366 2.773 6.741 3.918-3.975 2.133-7.402 5.091-11.846 6.513-.199.064-.405.128-.605.185-2.368.682-4.743.931-7.032.718-1.692-.156-3.342-.576-4.913-1.259-.007 0-.007-.007-.014-.007-1.636-.718-3.193-1.728-4.622-3.043-.292-.27-.583-.548-.86-.839-3.37-3.413-6.122-7.928-9.649-11.285 3.52-3.541 7.751-5.902 12.458-7.139.633.185 1.265.398 1.898.64 1.316.498 2.588 1.088 3.826 1.756h.007c.199.107.405.213.604.334.462.256.917.519 1.365.789-1.34.124-2.492.515-3.445 1.119zm5.746 15.658c-1.223-.014-2.439-.292-3.548-.825-.121-.05-.242-.114-.363-.178 1.251.548 2.567.882 3.911 1.003zm85.299 133.169c-1.906 7.921-7.907 10.943-15.43 12.358-6.03 1.137-12.053 1.742-18.075 2.026-6.023-.284-12.045-.889-18.075-2.026-7.523-1.415-13.525-4.437-15.43-12.358-.775-3.228-1.116-6.563-1.635-9.848 6.428-1.145 12.891-4.21 18.616-6.229 5.39-1.913 10.929-3.612 16.525-4.38 5.596.768 11.135 2.467 16.525 4.38 5.724 2.019 12.188 5.084 18.616 6.229-.52 3.285-.862 6.62-1.637 9.848zm21.652-25.378c-.448 1.088-.917 2.169-1.401 3.243-.292.661-.597 1.322-.91 1.977-2.154 4.544-5.212 8.113-10.474 8.725-1.934.228-3.868.1-5.781-.22-.37-.057-.732-.128-1.095-.199-1.586-.32-3.15-.754-4.686-1.209-8.078-2.41-16.411-5.98-24.845-7.843-1.984-.441-3.975-.789-5.966-1.003-1.991.213-3.982.562-5.966 1.003-8.433 1.863-16.767 5.433-24.845 7.843-1.536.455-3.1.889-4.686 1.209-.363.071-.725.142-1.095.199-1.913.32-3.847.448-5.781.22-5.262-.611-8.319-4.181-10.474-8.725-.313-.654-.619-1.316-.91-1.977-.484-1.074-.953-2.155-1.401-3.243-2.78-6.705-5.006-13.709-6.947-20.657-2.361-8.44-4.743-17.336-5.255-26.117-.533-9.059 2.219-16.995 8.398-23.629 10.581-11.356 25.904-18.872 40.716-22.839 6.065-1.628 12.152-2.588 18.246-2.987 6.094.398 12.181 1.358 18.246 2.987 14.811 3.968 30.135 11.484 40.716 22.839 6.179 6.634 8.931 14.57 8.398 23.629-.512 8.782-2.894 17.677-5.255 26.117-1.941 6.947-4.166 13.951-6.947 20.657zm35.412-112.043c-.014.1-.021.199-.036.299-.654 5.703-1.152 11.427-1.536 17.165-.043.676-.085 1.351-.128 2.027-.875 14.299-1.059 28.663-1.287 42.92-.206 13.368-2.439 26.217-12.102 36.115-5.234 5.368-11.477 9.087-18.004 12.373 3.513-8.938 6.393-18.111 8.547-27.469 1.97-8.533 3.897-17.748 2.446-26.508-1.294-7.815-5.909-14.222-11.697-19.427-11.967-10.751-27.682-18.324-44.178-21.737-.007-.007-.014-.007-.021-.007-4.16-.86-8.362-1.458-12.572-1.771-4.209.313-8.412.91-12.572 1.771-.007 0-.014 0-.021.007-16.497 3.413-32.211 10.986-44.178 21.737-5.788 5.205-10.403 11.612-11.697 19.427-1.451 8.76.477 17.976 2.446 26.508 2.154 9.358 5.034 18.53 8.547 27.469-6.528-3.285-12.771-7.004-18.004-12.373-9.663-9.898-11.896-22.747-12.102-36.115-.228-14.257-.412-28.62-1.287-42.92-.043-.675-.085-1.351-.128-2.027-.384-5.738-.882-11.462-1.536-17.165-.014-.1-.021-.199-.036-.299-.007-.071-.021-.142-.028-.206.007-.014.007-.028.014-.043.128-.427.27-.853.427-1.273.021-.057.042-.121.064-.178.185-.491.377-.967.59-1.436 1.742-3.861 4.451-7.132 7.779-9.528.199-.142.391-.277.597-.412 3.179-2.14 6.89-3.491 10.83-3.826 1.031-.085 2.076-.107 3.129-.05 1.088.057 2.19.192 3.292.413-4.153 1.387-7.95 3.925-10.815 7.224-.284.313-.548.64-.796.967.121.121.242.242.356.37 5.169 5.347 8.455 12.764 15.665 15.8 8.391 3.534 19.654-1.031 26.054-7.104.142.057.285.121.427.178 2.546 1.059 5.191 1.763 7.843 1.778 9.841.043 11.512-9.479 10.247-18.075-.555-3.868-1.721-7.559-2.994-10.097-6.193-12.337-19.135-21.489-31.934-25.954-9.258-3.235-19.768-3.591-29.068-.477-1.629.541-3.214 1.188-4.75 1.948-2.396 1.074-4.636 2.524-6.663 4.252-.014.014-.028.021-.043.036-.384.306-.761.626-1.13.96-1.65-7.687 2.261-15.871 9.386-20.585.185-.121.377-.242.569-.363.412-.256.832-.505 1.258-.739 11.349-6.307 24.83-4.245 37.146-2.403 1.778.263 3.555.519 5.333.754.014.028.043.043.078.05 12.387 1.671 25.172 2.93 37.708 2.809 12.536.121 25.321-1.138 37.708-2.809.036-.007.064-.021.078-.05 1.778-.235 3.555-.491 5.333-.754 12.316-1.842 25.798-3.904 37.146 2.403.427.235.846.483 1.258.739.192.121.384.242.569.363 7.125 4.714 11.036 12.899 9.386 20.585-.37-.334-.747-.654-1.131-.96-.014-.014-.028-.021-.043-.036-2.026-1.728-4.266-3.178-6.663-4.252-1.536-.761-3.122-1.408-4.75-1.948-9.301-3.114-19.81-2.759-29.068.477-12.799 4.465-25.741 13.617-31.934 25.954-1.273 2.538-2.439 6.229-2.994 10.097-1.266 8.597.405 18.118 10.246 18.075 2.652-.014 5.297-.718 7.843-1.778.142-.057.284-.121.427-.178 6.4 6.073 17.663 10.638 26.054 7.104 7.21-3.036 10.495-10.453 15.665-15.8.114-.128.235-.249.356-.37-.249-.327-.512-.654-.796-.967-2.866-3.299-6.663-5.838-10.815-7.224 1.102-.221 2.204-.356 3.292-.413 1.052-.057 2.098-.036 3.129.05 3.939.334 7.651 1.685 10.83 3.826.206.135.398.27.597.412 3.328 2.396 6.037 5.667 7.779 9.528.213.469.405.946.59 1.436.021.057.043.121.064.178.157.42.299.846.427 1.273.007.014.007.028.014.043-.011.064-.025.135-.032.206zm-37.665 5.255c.697-.085 1.408-.249 2.098-.491.164-.057.327-.121.483-.192 1.294-.541 2.361-1.344 3.207-2.311.505-.569.931-1.202 1.266-1.877.043-.071.078-.142.114-.22 1.941-4.01 1.102-9.272-2.531-11.569-.953-.604-2.112-.995-3.449-1.116.455-.27.91-.533 1.372-.789.199-.121.405-.228.604-.334h.007c1.237-.669 2.51-1.259 3.825-1.756.633-.242 1.266-.455 1.899-.64 4.707 1.237 8.938 3.598 12.458 7.139-3.527 3.356-6.279 7.871-9.649 11.285-.277.292-.569.569-.86.839-1.429 1.315-2.986 2.325-4.622 3.043-.007 0-.007.007-.014.007-1.571.683-3.221 1.102-4.913 1.259-2.29.213-4.665-.036-7.032-.718-.199-.057-.405-.121-.604-.185-4.444-1.422-7.871-4.38-11.846-6.513 2.375-1.145 4.65-2.546 6.741-3.918.071-.05.149-.1.22-.149.128 1.834.889 3.776 1.785 5.02.768 1.052 1.699 1.934 2.745 2.617 1.96 1.277 4.328 1.86 6.696 1.569zm-1.11-1.003c1.344-.121 2.66-.455 3.904-1.003-.121.064-.235.128-.355.178-1.11.534-2.326.811-3.549.825zm20.479-22.661c-2.51-.384-4.949-.334-7.324.036-.213.028-.427.064-.633.114-1.216.22-2.418.526-3.605.896-.654.206-1.308.434-1.956.683-5.319 2.019-10.31 5.269-15.06 8.348-.235.114-.441.256-.633.405-.512.327-1.017.661-1.522.981-2.432 1.55-5.674 3.747-9.08 5.276-.348.156-.697.306-1.052.448-3.385 1.351-6.862 1.927-9.806.441-4.928-2.489-5.539-8.832-4.743-14.335.306-2.098.818-4.082 1.38-5.674 4.835-13.78 19.469-23.885 32.823-28.386 9.031-3.051 18.538-3.648 27.334-1.244.526.142 1.045.299 1.564.462 4.018 2.041 7.701 4.65 10.737 7.822.299.313.59.626.882.946 3.577 4.032 6.144 8.903 7.16 14.605.092.519.171 1.038.228 1.557.092.732.149 1.458.178 2.183.05 1.216.021 2.425-.078 3.619-.036.491-.092.974-.156 1.458-.761 5.639-3.136 10.993-6.634 15.501-.043.05-.078.1-.114.142-.292.078-.576.164-.868.249-.107-.377-.228-.747-.363-1.116-2.76-7.923-9.721-14.045-18.659-15.417zm98.077 42.144c-4.188 3.719-10.531 4.281-15.594 4.466-7.829.284-15.686-.086-23.487-.932-13.851-1.5-27.077-5.596-40.524-9.322.057-1.159.121-2.318.178-3.477.242-4.679.626-9.343 1.081-14.001.213-.213.427-.427.64-.647 14.421-1.138 28.436-1.003 42.664 3.605 11.761 3.804 22.854 9.87 33.036 18.004.562.441 1.123.896 1.685 1.358.115.313.215.634.321.946zm-68.938-41.569c13.404-.256 26.985.711 39.436 6.748 11.967 5.795 22.726 16.874 28.329 31.486-9.87-8.838-20.977-15.473-32.617-19.533-13.183-4.608-27.959-6.762-41.662-3.683 3.342-4.345 5.539-9.571 6.3-15.011.072 0 .143 0 .214-.007zm127.644-155.218c-2.417 8.945-5.418 17.897-8.988 26.85-10.389 26.103-25.933 52.925-47.329 76.61-10.943 12.117-23.892 23.316-39.052 31.749-10.282 5.717-21.133 9.813-32.375 12.316-.05-.398-.107-.804-.171-1.202-.974-6.087-4.046-12.102-8.469-16.746.029-.057.021-.128-.043-.192-.014-.014-.028-.029-.042-.043.071-.235.142-.476.206-.711 1.216-4.558.711-9.742-1.166-13.759-1.372-2.944-3.399-5.418-5.831-7.445 9.223-.96 18.381-3.321 26.85-6.563 24.873-9.514 45.935-26.388 64.238-45.409 9.642-10.019 18.545-20.656 27.298-31.451 4.245-5.233 8.462-10.502 12.721-15.736 2.382-2.93 4.721-6.492 7.9-8.632 1.365-.917 3.086-1.436 4.729-1.422-.156.598-.312 1.195-.476 1.786z"/><path d="m295.009 321.46c-2.908-2.418-7.395.526-9.784 2.332-3.25 2.453-5.902 5.724-7.573 9.443-1.87 4.152-4.238 16.34 3.925 15.593 3.911-.355 6.705-4.458 8.718-7.402.142-.199.27-.412.405-.619 2.375-2.837 3.954-6.264 4.913-9.87.747-2.779 2.056-7.259-.604-9.477z"/><path d="m226.775 323.792c-2.389-1.806-6.876-4.75-9.784-2.332-2.66 2.218-1.351 6.698-.604 9.478.96 3.605 2.538 7.033 4.913 9.87.135.206.263.42.405.619 2.012 2.944 4.807 7.047 8.718 7.402 8.163.747 5.795-11.441 3.925-15.593-1.671-3.72-4.323-6.991-7.573-9.444z"/></g><path d="m198.524 377.684c-6.528-3.285-12.771-7.004-18.004-12.373-9.663-9.898-11.896-22.747-12.102-36.115-.228-14.257-.412-28.62-1.287-42.92-.043-.675-.085-1.351-.128-2.027-.384-5.738-.882-11.462-1.536-17.165-.014-.1-.021-.199-.036-.299-.007-.071-.021-.142-.028-.206.007-.014.007-.028.014-.043.128-.427.27-.853.427-1.273.021-.057.042-.121.064-.178.185-.491.377-.967.59-1.436 1.742-3.861 4.451-7.132 7.779-9.528.199-.142.391-.277.597-.412 3.179-2.14 6.89-3.491 10.83-3.826.512-.043 1.038-.064 1.557-.071-4.281 2.062-7.943 5.397-10.36 9.5-2.773 4.7-3.875 10.36-3.072 15.764 1.877-1.721 4.437-2.019 6.904-1.394-5.39 10.246-8.483 22.235-7.58 33.783 2.048-2.88 5.561-4.046 8.959-3.065-9.322 11.434-12.806 27.945-9.365 42.287 2.332-2.503 5.568-4.778 8.703-6.144-1.685 6.25-1.465 13.333 1.188 19.241 2.652 5.909 7.395 10.851 13.19 13.738-2.78-7.502-4.736-15.316-5.838-23.245 2.156 9.339 5.029 18.49 8.534 27.407z" opacity=".2"/><path d="m346.597 266.58c-.007.064-.021.135-.028.206-.014.1-.021.199-.036.299-.654 5.703-1.152 11.427-1.536 17.165-.043.676-.085 1.351-.128 2.027-.875 14.299-1.059 28.663-1.287 42.92-.206 13.368-2.439 26.217-12.102 36.115-5.234 5.368-11.477 9.087-18.004 12.373 3.513-8.938 6.393-18.111 8.547-27.469.057-.235.107-.476.164-.718-1.067 8.199-3.065 16.276-5.937 24.027 5.795-2.887 10.538-7.829 13.19-13.738s2.873-12.991 1.188-19.241c3.143 1.365 6.371 3.641 8.703 6.144 3.442-14.342-.042-30.853-9.365-42.287 3.399-.981 6.912.185 8.959 3.065.903-11.548-2.19-23.536-7.58-33.783 2.467-.626 5.027-.327 6.905 1.394.804-5.404-.299-11.064-3.072-15.764-2.418-4.096-6.072-7.438-10.353-9.5.491.007.988.036 1.472.071 3.939.334 7.651 1.685 10.83 3.826.206.135.398.27.597.412 3.328 2.396 6.037 5.667 7.779 9.528.213.469.405.946.59 1.436.021.057.043.121.064.178.157.42.299.846.427 1.273.006.012.006.027.013.041z" opacity=".2"/><g fill="#fff"><path d="m198.51 316.347c-6.027-2.152 33.42-30.576 53.33-28.087s55.463 15.643 56.885 20.976-45.153-9.244-54.752-9.599-45.508 20.266-55.463 16.71z" opacity=".2"/><path d="m170.779 225.686c7.683-4.889 53.686-10.666 59.019 17.777s-10.666.355-19.554-3.911-36.264-3.555-40.175-5.689c-3.912-2.133-3.201-5.688.71-8.177z" opacity=".2"/><path d="m341.674 225.686c-7.682-4.889-53.686-10.666-59.019 17.777s10.666.355 19.554-3.911 36.264-3.555 40.175-5.689c3.913-2.133 3.201-5.688-.71-8.177z" opacity=".2"/><path d="m170.203 201.162c-1.842 1.529-3.449 3.321-4.707 5.376-4.33 1.714-8.831 2.731-13.517 2.567-5.717-.192-11.228-2.169-16.44-4.515-25.257-11.37-45.487-31.571-62.851-53.145-15.693-19.483-29.552-40.446-45.743-59.481 1.493.078 3.022.583 4.252 1.408 3.179 2.14 5.518 5.703 7.9 8.632 4.259 5.234 8.476 10.503 12.721 15.736 8.753 10.794 17.656 21.431 27.298 31.451 18.303 19.021 39.365 35.895 64.238 45.409 8.468 3.241 17.626 5.602 26.849 6.562z" opacity=".6"/><path d="m483.926 92.105c-16.952 26.445-34.458 52.647-56.011 75.437-21.908 23.167-48.488 42.813-78.68 52.655.583-3.975-.021-8.199-1.607-11.59-1.372-2.944-3.399-5.418-5.831-7.445 9.223-.96 18.381-3.321 26.85-6.563 24.873-9.514 45.935-26.388 64.238-45.409 9.642-10.019 18.545-20.656 27.298-31.451 4.245-5.233 8.462-10.502 12.721-15.736 2.382-2.93 4.721-6.492 7.9-8.632.917-.619 2.005-1.06 3.122-1.266z" opacity=".6"/></g><path d="m485.533 91.949c-.156.597-.313 1.194-.477 1.785-2.417 8.945-5.418 17.897-8.988 26.85-10.389 26.103-25.933 52.925-47.329 76.61-10.943 12.117-23.892 23.316-39.052 31.749-10.282 5.717-21.133 9.813-32.375 12.316-.05-.398-.107-.804-.171-1.202-.896-5.603-3.57-11.142-7.445-15.615 8.369 4.935 18.9 5.311 28.286 2.738 9.564-2.624 18.118-8.035 26.061-13.972 24.973-18.666 45.395-43.375 59.047-71.405 8.113-16.674 15.338-32.538 21.161-49.753.428-.073.855-.108 1.282-.101z" opacity=".1"/><path d="m163.369 223.119c-.064.064-.071.135-.043.192-4.423 4.643-7.495 10.659-8.469 16.746-.064.398-.121.803-.171 1.202-11.242-2.503-22.093-6.599-32.375-12.316-15.16-8.433-28.108-19.633-39.052-31.749-21.396-23.686-36.94-50.507-47.329-76.61-2.012-5.049-3.84-10.097-5.49-15.139 14.847 37.701 42.742 69.457 72.522 97.324 6.954 6.513 14.129 12.934 22.448 17.578 8.319 4.65 17.961 7.445 27.405 6.179 3.662-.491 7.409-1.849 10.438-3.982.05.178.1.356.156.533-.011.014-.025.028-.04.042z" opacity=".1"/><g opacity=".3"><path d="m200.537 253.475c.462.256.917.519 1.365.789-1.337.121-2.489.512-3.442 1.116-.953.597-1.714 1.408-2.275 2.339-4.686-1.003-9.777-.988-13.766.825-.22-.221-.448-.448-.676-.661 3.52-3.541 7.751-5.902 12.458-7.139.633.185 1.265.398 1.898.64 1.316.498 2.588 1.088 3.826 1.756h.007c.199.107.406.214.605.335z"/><path d="m219.067 265.741c-1.756-.348-3.413-.725-5.041-1.187.156-.569.249-1.152.291-1.721.078.05.15.1.228.149 1.429.938 2.944 1.891 4.522 2.759z"/><path d="m297.676 262.833c.05.675.178 1.372.377 2.041-1.856.476-3.762.875-5.824 1.252 1.828-.967 3.584-2.062 5.227-3.143.07-.051.149-.101.22-.15z"/><path d="m330.257 257.883c-.1.092-.199.192-.299.292-4.174-1.564-9.343-1.365-13.987-.199-.583-1.045-1.394-1.941-2.432-2.595-.953-.604-2.112-.995-3.449-1.116.455-.27.91-.533 1.372-.789.199-.121.405-.228.604-.334h.007c1.237-.669 2.51-1.259 3.825-1.756.633-.242 1.266-.455 1.899-.64 4.709 1.236 8.94 3.596 12.46 7.137z"/></g><path d="m291.376 397.679c-22.96-7.082-48.509-5.703-70.509 3.961-.583-3.52-.619-6.713-.668-8.021 0 0 14.456-4.743 14.812-4.864.356-.114 20.152-5.447 21.097-5.568.946-.121 8.889 1.778 12.444 2.723 3.555.953 22.989 7.708 22.989 7.708s.055 1.622-.165 4.061z" opacity=".2"/><path d="m323.36 332.055c-.512 8.782-2.894 17.677-5.255 26.117-1.941 6.947-4.167 13.951-6.947 20.657-.448 1.088-.917 2.169-1.401 3.243-.292.661-.597 1.322-.91 1.977-2.154 4.544-5.212 8.113-10.474 8.725-1.934.228-3.868.1-5.781-.22-.37-.057-.732-.128-1.095-.199-1.586-.32-3.15-.754-4.686-1.209-8.078-2.41-16.411-5.98-24.845-7.843-1.984-.441-3.975-.789-5.966-1.003-1.991.213-3.982.562-5.966 1.003-8.433 1.863-16.767 5.433-24.845 7.843-1.536.455-3.1.889-4.686 1.209-.363.071-.725.142-1.095.199-1.913.32-3.847.448-5.781.22-5.262-.611-8.319-4.181-10.474-8.725-.313-.654-.619-1.316-.91-1.977-.484-1.074-.953-2.155-1.401-3.243-2.78-6.705-5.006-13.709-6.947-20.657-2.361-8.44-4.743-17.336-5.255-26.117-.377-6.442.903-12.316 3.89-17.556-2.439 14.819 10.09 60.356 16.291 66.556 6.399 6.4 28.442-4.266 43.375-4.622 14.932-.356 39.109 14.932 46.575 10.666 7.466-4.267 22.043-39.109 22.398-58.308.093-4.963-.412-9.45-1.202-13.375 2.632 5.006 3.748 10.573 3.393 16.639z" opacity=".3"/><path d="m152.035 288.424c1.593-1.941 2.816-4.153 3.818-6.698-6.819-.37-13.596.1-20.159 1.984 4.608-3.932 11.569-6.876 17.407-8.519-13.126-4.736-27.703-5.333-41.164-1.678 2.873-1.237 5.788-2.339 8.753-3.299 14.228-4.608 28.244-4.743 42.664-3.605.213.22.427.434.64.647.455 4.658.839 9.322 1.081 14.001.057 1.159.121 2.318.178 3.477-4.415 1.222-8.817 2.488-13.218 3.69z" opacity=".3"/><path d="m361.615 275.191c5.838 1.643 12.799 4.587 17.407 8.519-6.563-1.884-13.34-2.354-20.159-1.984 1.166 2.965 2.638 5.482 4.65 7.651-5.596-1.472-11.164-3.086-16.767-4.643.057-1.159.121-2.318.178-3.477.242-4.679.626-9.343 1.081-14.001.213-.213.427-.427.64-.647 14.421-1.138 28.436-1.003 42.664 3.605 1.849.597 3.683 1.252 5.497 1.97-11.719-2.063-23.985-1.039-35.191 3.007z" opacity=".3"/><path d="m418.258 274.188c-.732-.498-1.472-.981-2.211-1.451-12.593-7.964-26.544-13.773-41.071-17.101-6.314-1.443-13.404-2.24-19.362-.292.747-2.069 1.287-4.202 1.586-6.385.071 0 .142 0 .213-.007 13.404-.256 26.985.711 39.436 6.748 8.098 3.925 15.65 10.268 21.409 18.488z" fill="#fff" opacity=".1"/><path d="m155.413 252.138c-22.484-.747-45.274 7.452-61.991 22.505 5.809-8.44 13.482-14.947 21.73-18.943 12.451-6.037 26.032-7.004 39.436-6.748.071.007.142.007.213.007.149 1.067.356 2.134.612 3.179z" fill="#fff" opacity=".1"/></g></svg>