<svg id="Icons" height="512" viewBox="0 0 60 60" width="512" xmlns="http://www.w3.org/2000/svg"><path d="m9 20.48a8.981 8.981 0 0 1 -6-8.48 11.37 11.37 0 0 1 9.293-10.99.6.6 0 0 1 .526 1.02 16.146 16.146 0 0 0 -4.009 6.09 3.682 3.682 0 0 0 3.48 4.88h5.71l-3 8z" fill="#e7bc98"/><path d="m51 20.48a8.981 8.981 0 0 0 6-8.48 11.37 11.37 0 0 0 -9.293-10.99.6.6 0 0 0 -.526 1.02 16.146 16.146 0 0 1 4.009 6.09 3.682 3.682 0 0 1 -3.48 4.88h-5.71l3 8z" fill="#e7bc98"/><path d="m39.73 51-.11 2.22a6.366 6.366 0 0 1 -6.33 5.78h-6.58a6.366 6.366 0 0 1 -6.33-5.78l-.11-2.22 9.73-1z" fill="#966057"/><path d="m11.99 20.03c-5.3.28-7.78 2.79-8.69 4.05a1.561 1.561 0 0 0 0 1.84c.99 1.37 3.93 3.85 9.35 4.06z" fill="#6d4141"/><path d="m47.35 29.98c5.42-.21 8.36-2.69 9.35-4.06a1.561 1.561 0 0 0 0-1.84c-.91-1.26-3.39-3.77-8.69-4.05z" fill="#6d4141"/><path d="m41.41 49.84a8.367 8.367 0 0 0 4.59-7.84 41.285 41.285 0 0 1 1.35-12.02 14.155 14.155 0 0 1 2.03-4.24 3.35 3.35 0 0 0 .07-3.91s-.56-.79-1.44-1.8a21.6 21.6 0 0 0 -2.58-2.57 3.83 3.83 0 0 1 -1.43-2.96v-1.53a1.54 1.54 0 0 0 -1.85-1.51c-.24.05-.51.1-.79.15a10.183 10.183 0 0 1 -5.24-.47 14.914 14.914 0 0 0 -6.12-1.14 14.914 14.914 0 0 0 -6.12 1.14 10.183 10.183 0 0 1 -5.24.47c-.28-.05-.55-.1-.79-.15a1.54 1.54 0 0 0 -1.85 1.51v1.53a3.83 3.83 0 0 1 -1.43 2.96 21.6 21.6 0 0 0 -2.58 2.57c-.88 1.01-1.44 1.8-1.44 1.8a3.35 3.35 0 0 0 .07 3.91 14.155 14.155 0 0 1 2.03 4.24 41.285 41.285 0 0 1 1.35 12.02 8.367 8.367 0 0 0 4.59 7.84z" fill="#7f4b4b"/><path d="m22.77 29.72a3.494 3.494 0 1 1 -5.32-4.05l5.55 2.33z" fill="#fff"/><path d="m37.23 29.72a3.494 3.494 0 1 0 5.32-4.05l-5.55 2.33z" fill="#fff"/><path d="m23.061 28.9c-6-.664-7.879-4.294-7.956-4.449a1 1 0 0 1 1.787-.9c.07.135 1.548 2.825 6.387 3.359z" fill="#3f2323"/><path d="m20.134 44.105c-1.1-9.489 1.84-16.022 3.443-18.78a.262.262 0 0 1 .483.192 60.821 60.821 0 0 0 -1.921 15.932z" fill="#6d4141"/><path d="m36.939 28.9c6-.664 7.879-4.294 7.956-4.449a1 1 0 0 0 -1.787-.9c-.07.135-1.548 2.825-6.387 3.359z" fill="#3f2323"/><path d="m39.866 44.105c1.1-9.489-1.84-16.022-3.443-18.78a.262.262 0 0 0 -.483.192 60.821 60.821 0 0 1 1.921 15.932z" fill="#6d4141"/><circle cx="20" cy="30" fill="#2d1919" r="1"/><circle cx="40" cy="30" fill="#2d1919" r="1"/><path d="m42 47c0 3.31-2.24 6-5 6a4.328 4.328 0 0 1 -2.362-.711 9.418 9.418 0 0 0 -4.638-1.289 9.418 9.418 0 0 0 -4.638 1.289 4.328 4.328 0 0 1 -2.362.711c-2.76 0-5-2.69-5-6s2.24-6 5-6a4.325 4.325 0 0 1 2.362.711 9.421 9.421 0 0 0 4.638 1.289 9.421 9.421 0 0 0 4.638-1.289 4.325 4.325 0 0 1 2.362-.711c2.76 0 5 2.69 5 6z" fill="#a0705f"/><g fill="#7c4a43"><path d="m23 49a1 1 0 0 1 -1-1v-1a1 1 0 0 1 2 0v1a1 1 0 0 1 -1 1z"/><path d="m37 49a1 1 0 0 1 -1-1v-1a1 1 0 0 1 2 0v1a1 1 0 0 1 -1 1z"/></g></svg>