<svg id="Layer_1" enable-background="new 0 0 463.203 463.203" height="512" viewBox="0 0 463.203 463.203" width="512" xmlns="http://www.w3.org/2000/svg"><path d="m463.118 214.065c-4.781-39.418-44.148-67.971-87.415-49.991-2.08-3.33-4.25-6.6-6.52-9.79 15.68-9.89 35.44-27.58 42.22-56.21 6.54-27.64-1.03-57.03-19.33-79.62-7.83-9.68-23.43-4.17-23.4 8.28.079 35.646-19.082 66.06-54.66 75.62-51.992-31.657-113.322-31.561-165.24.26l-.28-.45c-34.928-9.717-54.039-39.781-53.96-75.43.03-12.45-15.57-17.96-23.4-8.28-33.349 41.167-30.225 102.295 22.89 135.83-2.27 3.19-4.44 6.46-6.52 9.79-43.267-17.98-82.636 10.572-87.418 49.99-.574 4.73 1.804 9.328 5.919 11.729 16.058 9.367 34.827 13.602 54.129 11.261-8.248 52.811 6.544 105.192 46.59 142.52 18.68 40.92 67.54 70.11 124.88 70.11s106.2-29.19 124.88-70.11c40.045-37.327 54.838-89.707 46.59-142.52 19.302 2.341 38.069-1.895 54.127-11.262 4.115-2.4 6.492-6.997 5.918-11.727z" fill="#a07765"/><path d="m392.073 18.454c33.415 41.248 30.136 102.384-22.89 135.83-14.85-20.93-33.64-38.81-55.17-51.93 35.561-9.555 54.738-40.003 54.66-75.62-.03-12.45 15.57-17.96 23.4-8.28z" fill="#cbe3fa"/><path d="m148.493 102.164.28.45c-21.35 13.09-40 30.88-54.75 51.67-15.68-9.9-35.45-27.58-42.22-56.21-6.54-27.64 1.03-57.03 19.33-79.62 7.83-9.68 23.43-4.17 23.4 8.28-.079 35.653 19.067 65.723 53.96 75.43z" fill="#cbe3fa"/><path d="m356.483 379.574c-18.68 40.92-67.54 70.11-124.88 70.11s-106.2-29.19-124.88-70.11c-31.798-69.652 32.378-143.89 124.88-143.89 93.791 0 156.238 75.2 124.88 143.89z" fill="#c79a83"/><path d="m366.652 108.924c-7.82 7.46-16.42 12.1-24.11 15.01-8.81-8.13-18.36-15.39-28.53-21.58 35.561-9.555 54.738-40.003 54.66-75.62-.03-12.45 15.57-17.96 23.4-8.28 8.165 10.095-4.563 70.562-25.42 90.47z" fill="#eef7ff"/><path d="m115.813 128.584c-7.96 7.87-15.25 16.49-21.79 25.7-15.68-9.9-35.45-27.58-42.22-56.21-6.755-28.547 1.873-58.749 19.481-79.804 5.83-6.972 17.064-.37 13.913 8.155-13.123 35.515-4.181 75.696 30.616 102.159z" fill="#eef7ff"/><path d="m87.503 164.074c-2.94 4.72-5.7 9.57-8.24 14.53-25.883.731-47.235 17.617-55.724 40.98-2.425 6.673-10.26 10.453-17.535 6.209-4.11-2.4-6.489-6.999-5.919-11.729 4.79-39.419 44.148-67.97 87.418-49.99z" fill="#b58c77"/><path d="m236.702 269.228c-54.659 12.759-97.121 53.946-99.064 100.443-.768 18.382-26.05 22.58-32.817 5.472-26.766-67.67 35.425-140.193 128.128-139.453 20.064.16 23.292 28.977 3.753 33.538z" fill="#e0b7a3"/><path d="m198.461 281.289c-1.991-3.944-.408-8.756 3.536-10.747 3.946-1.991 8.755-.407 10.747 3.536 3.559 7.05 10.961 11.605 18.858 11.605s15.299-4.555 18.858-11.605c1.99-3.944 6.802-5.528 10.747-3.536 3.944 1.991 5.527 6.803 3.536 10.747-13.718 27.178-52.564 27.174-66.282 0z" fill="#ffe773"/><path d="m205.274 80.96c30.35-5.312 43.079 37.209 14.701 49.211-33.037 13.972-62.382 39.14-83.472 72.903-20.576 32.968-30.299 70.787-29.55 102.23-11.145 24.024-11.054 50.56-.23 74.27-83.526-77.856-53.357-218.465 42.05-276.96 18.216-11.165 37.292-18.292 56.501-21.654z" fill="#b58c77"/><path d="m375.809 149.776c-2.257 1.654-4.48 3.153-6.627 4.508-14.85-20.93-33.64-38.81-55.17-51.93 4.192-1.124 8.932-2.754 13.845-5.137 2.682-1.301 5.864-1.032 8.265.734 15.317 11.263 29.318 24.999 41.238 40.484 2.738 3.556 2.069 8.688-1.551 11.341z" fill="#b5d5f5"/><path d="m409.449 237.59c-2.117-.1-4.244-.278-6.376-.535-4.05-25.98-13.59-50.9-27.37-72.98 3.288-1.367 6.551-2.465 9.778-3.307 3.547-.925 7.292.591 9.08 3.791 10.834 19.395 18.834 40.784 23.182 63.556.972 5.092-3.115 9.719-8.294 9.475z" fill="#785546"/><path d="m148.773 102.614c-21.35 13.09-40 30.88-54.75 51.67-2.148-1.356-4.373-2.858-6.631-4.516-3.605-2.647-4.292-7.774-1.563-11.318 16.819-21.841 33.698-34.911 41.337-40.49 2.374-1.734 5.514-2.028 8.16-.746 4.648 2.253 9.146 3.831 13.168 4.95z" fill="#b5d5f5"/><path d="m87.503 164.074c-13.78 22.08-23.32 47-27.37 72.98-2.133.257-4.259.436-6.377.535-5.177.244-9.266-4.379-8.294-9.47 4.293-22.491 12.197-43.894 23.189-63.557 1.788-3.199 5.532-4.717 9.078-3.792 3.226.842 6.491 1.937 9.774 3.304z" fill="#785546"/><path d="m187.597 385.685c-6.556 0-10.414-7.596-6.326-12.89 31.029-40.183 83.259-52.034 127.892-32.994 4.064 1.734 5.953 6.434 4.219 10.498-1.733 4.064-6.433 5.955-10.498 4.219-38.91-16.599-82.965-5.594-108.95 28.056-1.576 2.041-3.943 3.111-6.337 3.111z" fill="#a07765"/><path d="m201.602 208.684c-4.418 0-8-3.582-8-8v-16c0-4.418 3.582-8 8-8s8 3.582 8 8v16c0 4.418-3.581 8-8 8z" fill="#2c2c33"/><path d="m281.603 208.684c-4.418 0-8-3.582-8-8v-16c0-4.418 3.582-8 8-8s8 3.582 8 8v16c0 4.418-3.582 8-8 8z" fill="#2c2c33"/><g fill="#785546"><path d="m165.973 152.369c-3.139-3.109-3.164-8.174-.055-11.313 3.109-3.14 8.174-3.164 11.314-.055 8.255 8.176 19.326 12.397 30.889 11.699 4.401-.264 8.201 3.094 8.467 7.504s-3.094 8.201-7.504 8.467c-16.47.99-31.888-5.189-43.111-16.302z"/><path d="m254.121 168.67c-4.41-.266-7.77-4.057-7.504-8.467s4.054-7.766 8.467-7.504c11.6.7 22.66-3.549 30.889-11.699 3.139-3.109 8.204-3.084 11.314.055 3.109 3.139 3.084 8.205-.055 11.313-11.197 11.088-26.606 17.295-43.111 16.302z"/></g></svg>