<svg fill="none" height="512" viewBox="0 0 120 120" width="512" xmlns="http://www.w3.org/2000/svg"><path d="m107.703 40.3859c2.62 2.8008 1.793 7.33-1.771 8.747-9.3114 3.7018-18.3634 4.4272-27.1384 1.78-1.0029-.3025-1.5517-1.3613-1.2747-2.3716l6.1362-22.3811c.3157-1.1514 1.566-1.7735 2.6626-1.3014 8.7829 3.7812 14.4143 8.0767 21.3853 15.5271z" fill="#ccc"/><path d="m12.1052 40.3859c-2.62074 2.8008-1.7935 7.33 1.7709 8.747 9.3112 3.7018 18.3632 4.4272 27.1382 1.78 1.0029-.3025 1.5517-1.3613 1.2747-2.3716l-6.1362-22.3811c-.3157-1.1514-1.566-1.7735-2.6626-1.3014-8.7829 3.7812-14.4138 8.0767-21.385 15.5271z" fill="#ccc"/><path d="m105.259 10.9379c-8.8641 4.4394-22.4369 4.5556-29.0493 4.3015-1.6296-.0626-2.7405 1.731-1.9165 3.1384l9.9525 16.9974c.3608.6162 1.0262 1.0024 1.7383.9495 18.058-1.3425 31.115-31.31609 19.275-25.3868z" fill="#727272"/><path d="m14.5487 10.9379c8.8642 4.4394 22.4371 4.5556 29.0494 4.3015 1.6297-.0626 2.7406 1.731 1.9165 3.1384l-9.9525 16.9974c-.3608.6162-1.0262 1.0024-1.7382.9495-18.0582-1.3425-31.11464-31.31609-19.2752-25.3868z" fill="#727272"/><path d="m36.3125 81c-7.3523 0-13.3125-5.9602-13.3125-13.3125v-20.6875c0-20.4345 16.5655-37 37-37s37 16.5655 37 37v20.6875c0 7.3523-5.9602 13.3125-13.3125 13.3125h-3.6284c.6144 3.6202.9409 6.7712.9409 9 0 11.046-8.9543 20-20 20h-2c-11.0457 0-20-8.954-20-20 0-2.2288.3265-5.3798.9409-9z" fill="#e5e5e5"/><path d="m82 40c0 3.3137-2.6863 6-6 6s-6-2.6863-6-6 2.6863-6 6-6 6 2.6863 6 6z" fill="#000"/><path d="m50 40c0 3.3137-2.6863 6-6 6s-6-2.6863-6-6 2.6863-6 6-6 6 2.6863 6 6z" fill="#000"/><path clip-rule="evenodd" d="m80.8095 58c12.7026 0 23.0005 10.2975 23.0005 23s-10.2979 23-23.0005 23c-7.2853 0-14.0765-2.274-18.9821-7.9156-.9399-1.081-2.7149-1.081-3.6549 0-4.9055 5.6416-11.6967 7.9156-18.982 7.9156-12.7026 0-23-10.2975-23-23 0-12.6549 10.2203-22.9227 22.8571-22.9996z" fill="#ff8787" fill-rule="evenodd"/><g fill="#ce3b3b"><path d="m46 81.5c0 4.1421-3.3579 7.5-7.5 7.5s-7.5-3.3579-7.5-7.5 3.3579-7.5 7.5-7.5 7.5 3.3579 7.5 7.5z"/><path d="m90 81.5c0 4.1421-3.3579 7.5-7.5 7.5s-7.5-3.3579-7.5-7.5 3.3579-7.5 7.5-7.5 7.5 3.3579 7.5 7.5z"/></g></svg>