<svg height="512" viewBox="0 0 1000 1000" width="512" xmlns="http://www.w3.org/2000/svg"><g stroke-width=".094"><path d="m311.15 80.15c4.39-5.37 10.53-10.47 17.88-10.1 6.7.05 12.41 5.03 15.07 10.92 3.46 7.6 3.94 16.07 5.37 24.19 1.82 11.09 4.86 22.47 11.92 31.46 3.23 4.33 8.47 6.49 13.67 7.32 13.31-3.64 27.33-4.82 41.08-3.6 2.17.04 4.41 1 6.54.62 13.1-22.44 33.88-40.5 58.33-49.51 7.96-2.48 17.03-4.96 25.01-1.23 4.79 2.15 6.72 7.85 6.49 12.77-.66 7.52-3.68 14.57-7.1 21.21 8.46-2.29 19.07-3.14 25.84 3.49 4.26 4.55 2.89 11.3.24 16.3 7.07-.87 14.68.96 21.29-2.36 4.11-1.99 6.97-5.77 9.26-9.61 5.22-8.86 7.59-19.04 9.1-29.11 1.24-7.59 1.87-15.48 5.28-22.49 2.7-5.57 8.17-10.23 14.58-10.36 6.6-.45 12.43 3.68 16.63 8.4 8.8 10 14.48 22.48 17.54 35.38 4.76 20.73 2.3 42.81-5.74 62.41 14.66 1.17 27.69 9.35 38.83 18.42 19.27 15.74 32.61 37.26 43.53 59.31 4.67 9.03 8.66 18.43 14.17 27 1.78 2.86 4.14 5.32 5.88 8.23 1.56 2.27-.48 4.88-2.34 6.18-9.48 5.48-20.54 8.5-31.53 7.61-12.05-.72-23.42-5.35-33.96-10.96-5.83-3.42-10.69-8.21-15.05-13.32 1.88 9.43 4.81 18.72 9.24 27.28 8.39 15.93 23.38 27.2 31.46 43.33 11.77 22.04 16.66 47.96 12.68 72.71 6.19-7.97 12.39-16.32 21.01-21.83 4.8-3.2 11.15-4.35 16.56-2 9.61 3.79 15.88 12.89 19.95 22 6.94 12.98 9.69 28.2 7.41 42.76-4.38 25.61-16.4 49.6-33.03 69.44-9.9 12-21.07 23.04-33.77 32.07-11.23 8.1-23 16.02-36.33 20.18 4.49 21.46 6.89 43.47 5.46 65.4-1.61 21.17-6.23 42.42-16.08 61.36-1.85 4-4.4 7.63-6.27 11.6-3.25 13.96-6.68 27.9-8.69 42.11-3.42 23.09-4.19 46.53-2.76 69.82.69 8.41 1.27 17.71-3.67 25.06-6.9 11.05-19.81 16.35-32.02 19.07-15.75 2.18-32.89 2.81-47.37-4.81-6.64-3.21-11.14-9.45-14.12-16.01-6.52-14.08-8.24-29.86-8.32-45.22-.02-6.26.3-12.52 1.11-18.73-17.39 2.44-35.04 2.8-52.52 1.32-9.05 20.84-13.18 43.43-15.49 65.91-.59 4.34-.88 8.95-3.19 12.79-2.4 3.96-6.95 5.79-11.17 7.12-12.5 3.66-25.86 3.26-38.56.88-11.41-2.23-23.56-6.12-30.73-15.93-.58 4.94-1.03 9.95-2.49 14.74-1.93 5.53-7.54 8.34-12.5 10.67-13.54 5.95-28.05 9.36-42.59 11.84-33.55 5.9-68.48 2.04-100.52-9.21-7-2.96-15.78-5.55-18.89-13.25-2.18-7.52-2.47-15.41-3.21-23.16-1.94-32.65-2-65.44.57-98.06.88-9.34.38-18.88 2.83-28.01 1.59-5.81 6.01-10.72 6.1-16.94.23-7.57-5.84-13.61-5.8-21.13.16-4.31 3.93-7.32 7.48-9.11 5.06-2.4 11.3-3.58 16.53-1.03 3.91 1.97 5.6 6.28 7 10.15 4.33-5.06 3.32-12.24 4.35-18.39-5.57-.37-11.18-.64-16.66-1.77-2.85-.6-6.08-1.8-7.21-4.75-1.25-3.33 1.07-6.69 3.68-8.58 5.71-4.29 11.91-7.96 18.52-10.66 9.42-3.8 19.78-3.54 29.75-3.26-6.24-7.23-11.29-15.91-12.66-25.47-1.5-11.58-.1-23.59 4.63-34.3 5.58-14.31 14.57-26.92 24.3-38.67 12.17-14.27 26.42-26.75 42.22-36.87 11.16-8.06 23.37-14.5 35.91-20.12-15.47-11.16-28.45-25.58-38.62-41.67-11.37-18.68-18.65-39.78-21.65-61.42-3.4-23.74-1.84-48 2.89-71.45.49-2.46.3-4.97.11-7.44-.52-7.14-.47-14.3-.49-21.45-1.87 1.36-3.7 2.78-5.66 4.01-12.41 6.86-26.3 12.06-40.69 11.46-8.72-.34-17.2-3.14-24.82-7.31-1.76-1-3.37-2.71-3.59-4.78.31-2.14 1.94-3.74 3.14-5.43 5.35-6.7 8.99-14.52 12.81-22.14 7.1-14.48 14.38-28.97 23.78-42.14 11.56-16.31 26.43-30.75 44.43-39.75l.25-.55c-8.22-17.28-11.74-36.83-9.78-55.88 1.72-16.23 7.64-32.22 17.95-44.97m13.27-.81c-4.38 2.44-7.49 6.58-10.29 10.63-4.92 7.47-8.71 15.79-10.55 24.56-5.47 21.14-2.31 44.26 7.38 63.72 5.76-1.7 12.04-2.84 17.91-.99 9.71-11.57 21.66-21.2 34.96-28.34-1.46-.89-2.91-1.77-4.34-2.68-6.59-5.53-10.67-13.39-13.58-21.35-3.55-9.62-4.74-19.85-6.34-29.91-1.03-5.13-1.89-10.92-5.93-14.65-2.42-2.37-6.34-2.66-9.22-.99m257.8 8.79c-2.41 8.81-2.81 18.02-4.99 26.88-2.38 10.12-6.25 20.19-13.16 28.11-.8.78-1.58 1.59-2.36 2.38 19.02 3.4 36.81 12.55 50.93 25.68 6.58-17.5 8.7-36.88 4.56-55.21l-.16.55c-1.85-10.92-6.85-21.25-13.48-30.09-3.18-3.83-7.15-8.53-12.65-8.11-4.86.62-7.51 5.54-8.69 9.81m-113.91 18.23c-15.93 9.09-29.05 22.55-39.12 37.77-1.59 3.35-4.83 5.92-8.72 4.59-7.73-1.07-15.56-1.13-23.33-.61-7.12.71-14.4 1.36-21.09 4.12-19.44 7.73-36.02 21.95-47.7 39.21-18.65 27.4-25.39 61.01-26.92 93.62l.1.18c-.19 9.61-.12 19.25.2 28.84-2.22 13.22-4.21 26.52-4.6 39.94-1.12 27.6 3.85 55.74 16.35 80.5 5.9 12.12 13.94 23.12 23.09 32.97 10.33 11.25 22.87 20.24 36.04 27.88 16.55 9.67 34.87 15.88 53.41 20.45 20.68 4.66 41.87 6.93 63.05 7.23 27.88.21 55.94-2.37 82.92-9.59 30.5-7.98 60.21-21.4 83.48-43.06 14.26-13.19 25.38-30.38 28.89-49.7 4.01-24.71-1.74-50.49-14.01-72.13-3.59-6.81-9.1-12.25-14.03-18.06-6.31-7.22-12.33-14.84-16.56-23.49-5.32-11.01-8.5-22.92-10.49-34.94-1.29-8.94-3.01-18.16-.86-27.1.78-15.99-1.94-32.17-7.99-47-4.83-11.92-13.45-22.09-24.03-29.32-17.44-12.29-39.21-17.8-60.41-16.6-5.41.26-10.55 2.48-15.98 2.37-2.39.06-4.03-2.93-2.77-4.95 1.8-2.9 4.58-5.08 6.38-8 1.51-2.29 3.3-5.26 1.83-8.01-2.13-2.28-5.46-2.65-8.4-2.77-7.6-.08-15.06 2.79-20.95 7.53-1.59 1.36-5.3 2.79-5.87-.23-1.84-3.75 2.35-6.09 3.74-9.04 3.91-7.71 8.37-15.37 10.07-23.95.49-2.33.68-5.13-.94-7.09-2.97-1.85-6.71-1.69-10.03-1.14-8.84 1.34-17.05 5.2-24.75 9.58m-162.87 82.75-.01.13c-12.5 6.17-23.08 15.65-32.25 26.03-13.05 15.13-22.3 33.01-31.01 50.87-.97 1.95-1.96 3.89-2.95 5.83 10.73-5.98 23.16-7.81 33.88-13.78 8.68-4.27 16.95-9.65 23.85-16.43 1.92-4.96 4.49-9.69 5.8-14.87 3.61-11.16 7.96-22.15 14.03-32.22 1.71-3.05 4.06-5.81 4.87-9.28.83-.1 1.53-.44 2.11-1.02-6.48-.63-12.54 2.2-18.32 4.74m317.58-4.51c8.25 14.74 12.5 31.51 13.42 48.32-.05 1.23.91 2.11 1.62 3 2.67 3.07 5.61 5.89 8.76 8.47 8.48 7.23 18.23 12.8 28.39 17.31 8.9 3.3 18.2 5.7 26.57 10.32-10.19-20.62-20.3-41.75-35.9-58.94-10.43-11.3-22.68-21.49-37.27-26.87l-.01-.14c-1.86-.49-3.73-.99-5.58-1.47m13.22 60.62c-.5 3.46-.37 6.97.29 10.4 3.01 10.21 8.51 20.24 17.59 26.21 16.29 11.93 38.9 17.71 57.94 8.96-1.13-1.64-2.36-3.2-3.69-4.66-13.31-13.78-34.15-13.63-49.57-23.86-8.09-4.87-15.8-10.43-22.56-17.05m-356.49 18.56c-11.85 6.88-25.89 8.52-37.8 15.25-5.15 2.92-9.86 6.81-13.03 11.86.8.29 1.62.54 2.45.76 10.96 4.65 23.51 4.24 34.7.62 9.74-2.96 18.78-8.11 26.36-14.89 2.41-1.87 1.5-5.29 2.02-7.92.58-5.72 1.29-11.42 2.24-17.08-5.36 4.21-11.13 7.86-16.94 11.4m439.98 140.92c-8.04 3.37-13.27 10.8-18.38 17.51-3.43 4.75-6.77 9.55-10.25 14.26-.68 1.06-1.76 1.98-1.98 3.28-3.99 2.4-4.93 7.26-7.36 10.9-13.57 23.16-35.68 39.73-58.88 52.39 4.21 8.16 8.31 16.4 12.19 24.71 7.14 15.92 12.9 32.44 17.21 49.34 15.42-5.16 29.36-14.05 41.39-24.9 20.7-17.6 38.26-39.46 48.79-64.66 4.08-10.04 6.97-20.67 7.56-31.53 1.98-15.32-3.54-31.03-12.97-43.03-4.09-5-10.36-10.6-17.32-8.27m-373.43 97.27c-3.19 1.55-6.39 3.09-9.51 4.79-16.03 9.91-32.25 19.95-45.61 33.42-10.25 9.61-18.82 20.84-26.45 32.6-3.22 4.88-5.39 10.32-8.2 15.42l.15.13c-3.92 8.29-5.62 17.51-5.14 26.65.15 11.74 6.67 22.59 15.39 30.09 10.49 9.39 24.47 13.54 38.07 15.87 7.86.94 15.55 3.03 22.96 5.76.79.44 1.6.91 2.42 1.35 4.44 2.61 8.59 5.82 11.81 9.87 2.78 3.46 5.61 7.04 9.39 9.48 3.09 2.03 7.06 1.57 10.48.79 10.7-3.02 20.48-8.93 28.49-16.59 9.18-8.47 13.41-21.13 14.08-33.35 1.01-16.13-5.17-32.72-16.97-43.86-7.15-6.61-15.84-11.25-24.67-15.19-1.11-.52-3.74-1.67-2.01-3.18 2.95-1.01 6.15-.5 9.13.13 13.26 3.16 24.91 12.01 32.17 23.48 14.88 22.47 13.79 54.73-3.92 75.35-6.74 6.95-14.74 12.58-23.35 16.97-2.61 1.23-5.5 1.67-8.18 2.73-.63 7.15-5.98 13.01-5.88 20.29.09 6.57 4.94 11.67 6.34 17.89 1.47 6.51 1.98 13.2 2.03 19.87 31.86 20.46 69.03 32.4 106.75 35.14 35.92 2.15 73.18-3.88 104.53-22.24 5.86-3.51 11.84-6.99 16.92-11.59 12.61-8.73 22.88-20.55 31.2-33.36 6.67-10.52 12.37-21.83 15.85-33.8 4.39-14.19 6.56-29.01 7.14-43.82.92-39.91-9.13-79.55-25.83-115.62-3.36-7.04-6.78-14.05-10.57-20.86-44.01 20.24-93.34 26.55-141.4 24.01-40.24-2.41-81.27-11.68-115.2-34.32-4.16 1.84-8.29 3.75-12.41 5.7m-124.24 158.71.14-.63c-2.43 2.57-6.77 3.22-8.26 6.52 18.98 1.88 38.07 2.15 57.13 2.06 10.7-.46 21.4.35 32.09-.08-6.26-.99-12.41-2.61-18.49-4.29-7.03-2.57-13.78-5.91-19.82-10.33-3.79-.04-7.61-.07-11.4.04-10.79-.65-22.21.51-31.39 6.71m14.36 15.35c-.43 5.21-.77 10.49-1.97 15.59-2.02 5.96-6.42 10.68-10.28 15.52-7.43 8.65-14.07 17.95-21.56 26.57-1.94 2.13-2.48 5.04-2.89 7.81-3.38 36.03-4.66 72.33-2.56 108.49 10.74 5.31 22.37 8.59 33.99 11.38 21.84 4.91 44.47 6.68 66.78 4.64 22.13-1.74 44.31-6.52 64.53-15.85.96-7.32 1.03-14.71 1.25-22.07.56-26.06-.45-52.13-2.71-78.09-.56-5.93-.03-12.89-4.56-17.47-6.41-7.3-12.02-15.24-18.3-22.64-3.93-4.79-8.14-9.44-11.16-14.88-2.41-4.36-2.39-9.47-3.08-14.28-.11-1.58-.21-3.16-.29-4.72-6.87-.21-13.75.13-20.62.18-22.19.58-44.39-.14-66.57-.18m95.18 1.98c.76 5.46.44 11.5 4.06 16.06.96-2.74 2.17-5.38 3.77-7.8-2.62-2.73-4.44-6.43-7.83-8.26m-128.34 14.1c-.96.75-3.11 1.25-2.56 2.88 2.1 6.98 6.71 13.49 5.73 21.13 1.26-1.69 2.95-3.09 3.89-4.99-.12-3.92-1.69-7.52-2.98-11.15-.76-1.66.06-3.6 1.56-4.5 4.99-.28 5.99 5.2 7.83 8.63 1.54-1.55 1.22-3.55.9-5.46l-.3-.03c-.83-2.77-1.21-6.23-3.75-8.01-3.42-1.2-7.2-.05-10.32 1.5m138.7 9.91c.45.75.99 1.45 1.62 2.09 1.26-3.38 2.2-7.96 6.36-8.81-1.72-1.04-3.41-2.14-5.09-3.23-1.4 3.17-2.39 6.52-2.89 9.95m10.16-6.05c1.45 2.5.33 5.21-.86 7.56-.82 2.51-1.28 5.11-1.71 7.71 1.28 1.79 2.66 3.51 4.11 5.18-.18-4.06.58-8.07 2.01-11.85l.21.08c.98-2.78 2.16-5.46 3.13-8.23-2.3 0-4.61-.13-6.89-.45m228.86 78.89c-1.21.66-2.5 1.33-3.15 2.63-3.5.29-6.4 2.51-9.6 3.73-12.39 5.13-25.25 9.23-38.43 11.75-2.07 14.81-1.72 29.97.86 44.7l.14.07c1.95 10.47 5.64 21.36 13.61 28.81 8.73 4.96 19.09 6.03 28.98 5.92 7.4-.14 14.82-.97 22-2.8 8.45-2.91 17.14-7.64 21.2-16.01 3.46-6.94.89-14.76.86-22.09-.32-7.84-.49-15.69-.41-23.53.16-11.7.94-23.38 2.3-34.99.99-5.32 1.31-10.73 2.37-16.03.88-5.75 2.54-11.36 3.26-17.14-12.35 14.24-27.42 26.03-43.99 34.98m-210.75-11.79c1.03 17.63 1.7 35.28 1.77 52.94-.25 7.46-.34 14.93-.62 22.39.08 4.65-1.71 9.86 1.05 14.04 1.51 4.25 2.38 9.06 6 12.17 7.16 6.58 17.14 8.54 26.39 10.34 10.86 1.48 22.17 1.76 32.74-1.57 2.68-.92 6.03-2.13 6.55-5.35 1.54-6.9 1.73-14.02 2.81-21 2.05-14.41 5.01-28.75 9.77-42.53 1.15-3.35 2.45-6.64 3.87-9.88-19.4-2.71-38.46-7.78-56.7-14.92-11.7-4.48-22.74-10.48-33.63-16.63m-172.59 92.71c.5 7.12 1.07 14.26 2.08 21.34.42 3.46 3.87 5.09 6.6 6.56 10.01 4.85 20.84 7.75 31.66 10.18 18.4 3.77 37.33 6.39 56.11 4.32 16.55-1.62 33.04-4.71 48.8-10.07 5.22-1.9 10.6-3.76 15.11-7.09 1.63-1.14 2.25-3.13 2.48-5.01.79-6.73 1.44-13.47 1.88-20.23-33.56 14.83-71.13 18.5-107.39 15-19.67-2.3-39.2-6.92-57.33-15z" stroke="#000"/><path d="m324.42 79.34c2.88-1.67 6.8-1.38 9.22.99 4.04 3.73 4.9 9.52 5.93 14.65 1.6 10.06 2.79 20.29 6.34 29.91 2.91 7.96 6.99 15.82 13.58 21.35-16.85 7.87-39.07 2.4-49.96-12.77-4.06-5.48-5.11-12.36-5.95-18.94 1.84-8.77 5.63-17.09 10.55-24.56 2.8-4.05 5.91-8.19 10.29-10.63z" fill="#fff1c4" stroke="#fff1c4"/><path d="m582.22 88.13c1.18-4.27 3.83-9.19 8.69-9.81 5.5-.42 9.47 4.28 12.65 8.11 6.63 8.84 11.63 19.17 13.48 30.09-3.98 18.78-24 32.58-42.96 29.24-3.42-.55-6.73-1.56-10.01-2.64 6.91-7.92 10.78-17.99 13.16-28.11 2.18-8.86 2.58-18.07 4.99-26.88z" fill="#fff1c4" stroke="#fff1c4"/><path d="m468.31 106.36c7.7-4.38 15.91-8.24 24.75-9.58 3.32-.55 7.06-.71 10.03 1.14 1.62 1.96 1.43 4.76.94 7.09-1.7 8.58-6.16 16.24-10.07 23.95-1.39 2.95-5.58 5.29-3.74 9.04.57 3.02 4.28 1.59 5.87.23 5.89-4.74 13.35-7.61 20.95-7.53 2.94.12 6.27.49 8.4 2.77 1.47 2.75-.32 5.72-1.83 8.01-1.8 2.92-4.58 5.1-6.38 8-1.26 2.02.38 5.01 2.77 4.95 5.43.11 10.57-2.11 15.98-2.37 21.2-1.2 42.97 4.31 60.41 16.6 10.58 7.23 19.2 17.4 24.03 29.32 6.05 14.83 8.77 31.01 7.99 47-2.15 8.94-.43 18.16.86 27.1 1.99 12.02 5.17 23.93 10.49 34.94 4.23 8.65 10.25 16.27 16.56 23.49 4.93 5.81 10.44 11.25 14.03 18.06 12.27 21.64 18.02 47.42 14.01 72.13-8.85 8.03-16.87 16.96-26.17 24.5-2.75 2.15-5.2 4.96-8.73 5.79 10.2-14.42 14.19-33.03 11.22-50.41-2.27-14.01-9.64-26.77-19.28-37.03-18.73-20.38-45.51-32.54-72.98-34.68-15.46-1.31-31-1.18-46.49-.71-16.15.46-32.34 3.29-47.26 9.6-16 7.07-30.53 17.71-41.42 31.46-7.76 9.66-13.21 21.34-14.78 33.69-2.58 19.21 3.18 39.77 16.46 54.07 8.35 9.17 20.67 14.44 33.05 14.42 14.07.14 27.53-4.62 40.9-8.43 9.25-2.85 18.6-5.46 28.14-7.17 3.51-.81 7.03.34 10.48.99 17.03 3.51 33.27 10.1 50.36 13.38 5.5.97 11.13 1.59 16.72 1.03.38 2.01-2.01 2.27-3.3 3.04-17.86 8.19-36.96 13.34-56.25 16.82-44.27 7.32-89.92 2.89-132.9-9.36-26.77-7.72-52.79-19.65-74-37.97-6.14-4.4-12.34-9.34-19.9-10.96-4.96-1.09-10.14-.27-14.75 1.75-12.5-24.76-17.47-52.9-16.35-80.5.39-13.42 2.38-26.72 4.6-39.94-.32-9.59-.39-19.23-.2-28.84 4.28 8.34 10.77 15.67 19.07 20.15 7.99 4.07 16.25 8.28 25.39 8.72 6.14.17 12.35.5 18.46-.45 19.27-3.92 36.91-14.64 49.85-29.37.77.48 1.57.95 2.38 1.39-1.93 9.52.99 19.92 8.06 26.66 9.25 9.35 25.07 10.82 35.87 3.34 11.24-7.19 15.94-22.72 10.53-34.92-4.97-12.42-19.35-19.99-32.4-16.92-4.32.92-8.39 2.88-11.84 5.63 1.8-4.78 5.03-8.82 7.19-13.43 6.62-14.66 10.91-30.9 8.95-47.08-.11-8.33-2.91-16.25-6.3-23.75-3-8.21-8.36-15.32-14.74-21.21-6.62-7.47-15.28-13.04-24.86-15.89 7.77-.52 15.6-.46 23.33.61 3.89 1.33 7.13-1.24 8.72-4.59 10.07-15.22 23.19-28.68 39.12-37.77m110.69 159.61c-12.86 5.78-19.71 21.82-14.84 35.09 4.41 14.03 20.71 22.69 34.8 18.37 14.27-3.64 23.72-19.37 20.31-33.69 3.26-1.78 6.5-4.18 7.69-7.86 1.32-3.67.81-7.74-.25-11.4-.64-2.3-3.98-3.17-5.48-1.2-2.57 3.11-6.29 5.16-10.35 5.43-8.59-7.52-21.51-9.9-31.88-4.74z" fill="#fff" stroke="#fff"/><path d="m303.58 114.53c.84 6.58 1.89 13.46 5.95 18.94 10.89 15.17 33.11 20.64 49.96 12.77 1.43.91 2.88 1.79 4.34 2.68-13.3 7.14-25.25 16.77-34.96 28.34-5.87-1.85-12.15-.71-17.91.99-9.69-19.46-12.85-42.58-7.38-63.72z" fill="#e0c69f" stroke="#e0c69f"/><path d="m617.04 116.52.16-.55c4.14 18.33 2.02 37.71-4.56 55.21-14.12-13.13-31.91-22.28-50.93-25.68.78-.79 1.56-1.6 2.36-2.38 3.28 1.08 6.59 2.09 10.01 2.64 18.96 3.34 38.98-10.46 42.96-29.24z" fill="#e0c69f" stroke="#e0c69f"/><path d="m376.05 152.23c6.69-2.76 13.97-3.41 21.09-4.12 9.58 2.85 18.24 8.42 24.86 15.89 6.38 5.89 11.74 13 14.74 21.21 3.39 7.5 6.19 15.42 6.3 23.75 1.96 16.18-2.33 32.42-8.95 47.08-2.16 4.61-5.39 8.65-7.19 13.43-.27.38-.81 1.14-1.08 1.51-3.43-.7-7.07-1.5-9.51-4.22-1.5-1.65-4.12-3.84-6.15-1.62-3.58 6.1-2.34 15.36 4.14 19.15-12.94 14.73-30.58 25.45-49.85 29.37-6.11.95-12.32.62-18.46.45-9.14-.44-17.4-4.65-25.39-8.72-8.3-4.48-14.79-11.81-19.07-20.15l-.1-.18c1.53-32.61 8.27-66.22 26.92-93.62 11.68-17.26 28.26-31.48 47.7-39.21z" fill="#404040" stroke="#404040"/><path d="m305.44 189.11c5.78-2.54 11.84-5.37 18.32-4.74-.58.58-1.28.92-2.11 1.02-.81 3.47-3.16 6.23-4.87 9.28-6.07 10.07-10.42 21.06-14.03 32.22-1.31 5.18-3.88 9.91-5.8 14.87-6.9 6.78-15.17 12.16-23.85 16.43-10.72 5.97-23.15 7.8-33.88 13.78.99-1.94 1.98-3.88 2.95-5.83 17.85-6.82 32.54-19.99 43.84-35.14 6.4-8.33 11.85-17.4 15.98-27.06 1.9-4.67 3.44-9.61 3.44-14.7z" fill="#c6c4d9" stroke="#c6c4d9"/><path d="m623.02 184.6c1.85.48 3.72.98 5.58 1.47l.01.14c.34 3.6 3.33 6.21 4.71 9.44 7.57 15.13 13.08 31.72 13.5 48.74-3.15-2.58-6.09-5.4-8.76-8.47-.71-.89-1.67-1.77-1.62-3-.92-16.81-5.17-33.58-13.42-48.32z" fill="#c6c4d9" stroke="#c6c4d9"/><path d="m633.32 195.65c-1.38-3.23-4.37-5.84-4.71-9.44 14.59 5.38 26.84 15.57 37.27 26.87 15.6 17.19 25.71 38.32 35.9 58.94-8.37-4.62-17.67-7.02-26.57-10.32-10.16-4.51-19.91-10.08-28.39-17.31-.42-17.02-5.93-33.61-13.5-48.74z" fill="#fff" stroke="#fff"/><path d="m273.18 215.27c9.17-10.38 19.75-19.86 32.25-26.03 0 5.09-1.54 10.03-3.44 14.7-4.13 9.66-9.58 18.73-15.98 27.06-11.3 15.15-25.99 28.32-43.84 35.14 8.71-17.86 17.96-35.74 31.01-50.87z" fill="#fff" stroke="#fff"/><path d="m636.24 245.22c6.76 6.62 14.47 12.18 22.56 17.05 15.42 10.23 36.26 10.08 49.57 23.86-21.42 3.51-43.28-5.11-59.44-18.97-4.4-3.56-8-7.98-12.4-11.54-.66-3.43-.79-6.94-.29-10.4z" fill="#e197a0" stroke="#e197a0"/><path d="m279.75 263.78c5.81-3.54 11.58-7.19 16.94-11.4-.95 5.66-1.66 11.36-2.24 17.08-10.98 7.34-22.51 14.13-35.31 17.76-8.98 2.95-18.38 3.99-27.77 4.43-.83-.22-1.65-.47-2.45-.76 3.17-5.05 7.88-8.94 13.03-11.86 11.91-6.73 25.95-8.37 37.8-15.25z" fill="#e197a0" stroke="#e197a0"/><path d="m636.53 255.62c4.4 3.56 8 7.98 12.4 11.54 16.16 13.86 38.02 22.48 59.44 18.97 1.33 1.46 2.56 3.02 3.69 4.66-19.04 8.75-41.65 2.97-57.94-8.96-9.08-5.97-14.58-16-17.59-26.21z" fill="#ffadb0" stroke="#ffadb0"/><path d="m438.74 263.84c13.05-3.07 27.43 4.5 32.4 16.92 5.41 12.2.71 27.73-10.53 34.92-10.8 7.48-26.62 6.01-35.87-3.34-7.07-6.74-9.99-17.14-8.06-26.66-.81-.44-1.61-.91-2.38-1.39-6.48-3.79-7.72-13.05-4.14-19.15 2.03-2.22 4.65-.03 6.15 1.62 2.44 2.72 6.08 3.52 9.51 4.22.27-.37.81-1.13 1.08-1.51 3.45-2.75 7.52-4.71 11.84-5.63m2.78 18.88c-4.24 1.77-4.9 8.18-1.04 10.72 3.63 2.87 9.59.11 9.81-4.49.65-4.55-4.68-8.32-8.77-6.23m5.96 22.94c-3.16 2.43 1.52 7.15 3.98 4.07 2.53-2.48-1.53-6.39-3.98-4.07z" stroke="#000"/><path d="m579 265.97c10.37-5.16 23.29-2.78 31.88 4.74 4.06-.27 7.78-2.32 10.35-5.43 1.5-1.97 4.84-1.1 5.48 1.2 1.06 3.66 1.57 7.73.25 11.4-1.19 3.68-4.43 6.08-7.69 7.86 3.41 14.32-6.04 30.05-20.31 33.69-14.09 4.32-30.39-4.34-34.8-18.37-4.87-13.27 1.98-29.31 14.84-35.09m9.13 16.29c-4.27 1.2-5.67 7.23-2.46 10.24 3.02 3.34 9.22 1.84 10.36-2.51 1.74-4.57-3.39-9.59-7.9-7.73m5.23 23.26c-2.99 2.45 1.68 7.02 4.09 3.99 2.56-2.48-1.67-6.69-4.09-3.99z" stroke="#000"/><path d="m259.14 287.22c12.8-3.63 24.33-10.42 35.31-17.76-.52 2.63.39 6.05-2.02 7.92-7.58 6.78-16.62 11.93-26.36 14.89-11.19 3.62-23.74 4.03-34.7-.62 9.39-.44 18.79-1.48 27.77-4.43z" fill="#ffadb0" stroke="#ffadb0"/><g fill="#fff" stroke="#fff"><path d="m441.52 282.72c4.09-2.09 9.42 1.68 8.77 6.23-.22 4.6-6.18 7.36-9.81 4.49-3.86-2.54-3.2-8.95 1.04-10.72z"/><path d="m588.13 282.26c4.51-1.86 9.64 3.16 7.9 7.73-1.14 4.35-7.34 5.85-10.36 2.51-3.21-3.01-1.81-9.04 2.46-10.24z"/><path d="m447.48 305.66c2.45-2.32 6.51 1.59 3.98 4.07-2.46 3.08-7.14-1.64-3.98-4.07z"/><path d="m593.36 305.52c2.42-2.7 6.65 1.51 4.09 3.99-2.41 3.03-7.08-1.54-4.09-3.99z"/></g><path d="m474.67 337.76c14.92-6.31 31.11-9.14 47.26-9.6 15.49-.47 31.03-.6 46.49.71 27.47 2.14 54.25 14.3 72.98 34.68 9.64 10.26 17.01 23.02 19.28 37.03 2.97 17.38-1.02 35.99-11.22 50.41-7.82 11.51-20.83 19.61-34.88 20.21-5.59.56-11.22-.06-16.72-1.03-17.09-3.28-33.33-9.87-50.36-13.38-3.45-.65-6.97-1.8-10.48-.99-9.54 1.71-18.89 4.32-28.14 7.17-13.37 3.81-26.83 8.57-40.9 8.43-12.38.02-24.7-5.25-33.05-14.42-13.28-14.3-19.04-34.86-16.46-54.07 1.57-12.35 7.02-24.03 14.78-33.69 10.89-13.75 25.42-24.39 41.42-31.46m34.41-.33c-27.14 2.39-53.21 16.03-70.07 37.51-8.22 10.36-13.32 23.43-13.11 36.74-.17 8.67 1.78 17.32 5.25 25.24 4.57 10.2 12.24 19.67 22.9 23.82 9.21 3.82 19.55 3.11 29.09 1.05 12.46-2.73 24.53-6.97 36.87-10.18 8.43-2.1 17.17-4.09 25.9-2.77 19.79 2.83 38.22 11.53 58.04 14.23 10.85 1.53 22.54-.81 31.06-7.97 7.41-6.39 12.98-15.03 15.54-24.49 4.41-12.18 4.02-25.99-.22-38.19-5.9-15.84-18.18-28.52-31.94-37.9-13.75-9.48-29.93-15.17-46.51-16.9-8.9-1.43-17.91-2.11-26.93-1.98-11.97-.01-24.03-.29-35.87 1.79z" stroke="#000"/><path d="m509.08 337.43c11.84-2.08 23.9-1.8 35.87-1.79 9.02-.13 18.03.55 26.93 1.98 16.58 1.73 32.76 7.42 46.51 16.9 13.76 9.38 26.04 22.06 31.94 37.9 4.24 12.2 4.63 26.01.22 38.19-2.99 2.74-5.15 6.19-7.93 9.1-8.68 8.3-20.48 13.62-32.6 13.45-16.96.37-32.89-6.21-48.68-11.52-10.63-3.72-22.15-4.94-33.31-3.3-16.51 2.76-31.41 11.37-48 13.84-10.88 1.77-22.59-.17-31.77-6.47-6.24-4.32-11.82-9.85-15.29-16.67-3.1-5.47-4.4-11.7-7.07-17.36-.21-13.31 4.89-26.38 13.11-36.74 16.86-21.48 42.93-35.12 70.07-37.51m-32.52 31.28c-6.06 2.3-10.21 8.06-11.58 14.27-2.36 10.6 1.41 22.33 9.41 29.65 4.9 4.58 12.08 7.17 18.7 5.23 5.97-1.69 10.37-6.89 12.17-12.7 3.46-11.48-.74-24.78-9.92-32.42-5.09-4.29-12.37-6.36-18.78-4.03m116.51-.5c-12.77 3.35-20.51 17.16-20 29.83.13 7.31 3.57 15.01 10.25 18.55 6.07 3.35 13.78 2.02 19.25-1.92 8.37-5.97 13.01-16.47 12.64-26.64-.25-6.7-3.09-13.69-8.82-17.49-3.81-2.72-8.83-3.38-13.32-2.33z" fill="#ffadb0" stroke="#ffadb0"/><path d="m476.56 368.71c6.41-2.33 13.69-.26 18.78 4.03 9.18 7.64 13.38 20.94 9.92 32.42-1.8 5.81-6.2 11.01-12.17 12.7-6.62 1.94-13.8-.65-18.7-5.23-8-7.32-11.77-19.05-9.41-29.65 1.37-6.21 5.52-11.97 11.58-14.27m-3.9 17.38c-.82 5.89.52 12.44 4.42 17.04l-.02.63c2.85 3.24 6.45 6.37 10.98 6.6 3.74.25 7.12-2.35 8.62-5.65 2.86-6.04 1.81-13.27-1.19-19.05-2.68-5.03-7.5-9.84-13.56-9.76-5.27.21-8.62 5.4-9.25 10.19z" stroke="#000"/><path d="m593.07 368.21c4.49-1.05 9.51-.39 13.32 2.33 5.73 3.8 8.57 10.79 8.82 17.49.37 10.17-4.27 20.67-12.64 26.64-5.47 3.94-13.18 5.27-19.25 1.92-6.68-3.54-10.12-11.24-10.25-18.55-.51-12.67 7.23-26.48 20-29.83m-2.1 9.65c-5.7 3.71-9.04 10.37-9.7 17.03-.35 4.27.27 9.06 3.37 12.28l.01.69c2.87 2.15 6.68 3.37 10.12 1.78 7.93-3.31 12.3-12.25 12.27-20.55-.05-4.43-1.43-9.37-5.35-11.89-3.27-2.15-7.6-1.39-10.72.66z" stroke="#000"/><path d="m472.66 386.09c.63-4.79 3.98-9.98 9.25-10.19 6.06-.08 10.88 4.73 13.56 9.76-4.26-.49-9.15-1.91-12.83 1.08-5.15 3.7-5.52 10.62-5.56 16.39-3.9-4.6-5.24-11.15-4.42-17.04z" fill="#b44d65" stroke="#b44d65"/><path d="m590.97 377.86c3.12-2.05 7.45-2.81 10.72-.66 3.92 2.52 5.3 7.46 5.35 11.89-2.4-2.04-4.66-4.8-8.01-5.09-4.97-.44-9.65 2.96-11.78 7.31-2.7 4.82-2.77 10.49-2.61 15.86-3.1-3.22-3.72-8.01-3.37-12.28.66-6.66 4-13.32 9.7-17.03z" fill="#b44d65" stroke="#b44d65"/><path d="m587.25 391.31c2.13-4.35 6.81-7.75 11.78-7.31 3.35.29 5.61 3.05 8.01 5.09.03 8.3-4.34 17.24-12.27 20.55-3.44 1.59-7.25.37-10.12-1.78l-.01-.69c-.16-5.37-.09-11.04 2.61-15.86z" fill="#e06478" stroke="#e06478"/><path d="m482.64 386.74c3.68-2.99 8.57-1.57 12.83-1.08 3 5.78 4.05 13.01 1.19 19.05-1.5 3.3-4.88 5.9-8.62 5.65-4.53-.23-8.13-3.36-10.98-6.6l.02-.63c.04-5.77.41-12.69 5.56-16.39z" fill="#e06478" stroke="#e06478"/><path d="m719.73 404.7c6.96-2.33 13.23 3.27 17.32 8.27 9.43 12 14.95 27.71 12.97 43.03-.59 10.86-3.48 21.49-7.56 31.53-14.04-9.07-23.47-23.48-30.76-38.2-4.38-8.66-7.51-17.86-10.35-27.12 5.11-6.71 10.34-14.14 18.38-17.51z" fill="#ffadb0" stroke="#ffadb0"/><path d="m425.9 411.68c2.67 5.66 3.97 11.89 7.07 17.36 3.47 6.82 9.05 12.35 15.29 16.67 9.18 6.3 20.89 8.24 31.77 6.47 16.59-2.47 31.49-11.08 48-13.84 11.16-1.64 22.68-.42 33.31 3.3 15.79 5.31 31.72 11.89 48.68 11.52 12.12.17 23.92-5.15 32.6-13.45 2.78-2.91 4.94-6.36 7.93-9.1-2.56 9.46-8.13 18.1-15.54 24.49-8.52 7.16-20.21 9.5-31.06 7.97-19.82-2.7-38.25-11.4-58.04-14.23-8.73-1.32-17.47.67-25.9 2.77-12.34 3.21-24.41 7.45-36.87 10.18-9.54 2.06-19.88 2.77-29.09-1.05-10.66-4.15-18.33-13.62-22.9-23.82-3.47-7.92-5.42-16.57-5.25-25.24z" fill="#e197a0" stroke="#e197a0"/><path d="m658.19 445.2c9.3-7.54 17.32-16.47 26.17-24.5-3.51 19.32-14.63 36.51-28.89 49.7-23.27 21.66-52.98 35.08-83.48 43.06-26.98 7.22-55.04 9.8-82.92 9.59-21.18-.3-42.37-2.57-63.05-7.23-18.54-4.57-36.86-10.78-53.41-20.45-13.17-7.64-25.71-16.63-36.04-27.88-9.15-9.85-17.19-20.85-23.09-32.97 4.61-2.02 9.79-2.84 14.75-1.75 7.56 1.62 13.76 6.56 19.9 10.96 21.21 18.32 47.23 30.25 74 37.97 42.98 12.25 88.63 16.68 132.9 9.36 19.29-3.48 38.39-8.63 56.25-16.82 1.29-.77 3.68-1.03 3.3-3.04 14.05-.6 27.06-8.7 34.88-20.21 3.53-.83 5.98-3.64 8.73-5.79z" fill="#c6c4d9" stroke="#c6c4d9"/><path d="m691.1 436.47c3.48-4.71 6.82-9.51 10.25-14.26 2.84 9.26 5.97 18.46 10.35 27.12 7.29 14.72 16.72 29.13 30.76 38.2-10.53 25.2-28.09 47.06-48.79 64.66-5.1-.06-10.22 1.95-15.23.32-9.49-2.58-16.2-10.86-19.85-19.62 6.9-1.66 12.45-7.16 14.44-13.93 3.16-10.39 2.81-21.53 6.26-31.87 3.13-11.02 10.54-20.25 13.46-31.35 1.71-6.35 1.44-13.38-1.65-19.27z" fill="#fff" stroke="#fff"/><path d="m689.12 439.75c.22-1.3 1.3-2.22 1.98-3.28 3.09 5.89 3.36 12.92 1.65 19.27-2.92 11.1-10.33 20.33-13.46 31.35-3.45 10.34-3.1 21.48-6.26 31.87-1.99 6.77-7.54 12.27-14.44 13.93l-.42.1c-.92-5.27-2.77-10.53-1.91-15.95.99-7.47 2.72-15.2 7.44-21.27 7.96-10.05 13.6-21.67 18.77-33.33 2.63-7.42 5.77-14.8 6.65-22.69z" fill="#404040" stroke="#404040"/><path d="m681.76 450.65c2.43-3.64 3.37-8.5 7.36-10.9-.88 7.89-4.02 15.27-6.65 22.69-5.17 11.66-10.81 23.28-18.77 33.33-4.72 6.07-6.45 13.8-7.44 21.27-.86 5.42.99 10.68 1.91 15.95-8.02 1.55-16.46-.57-23.1-5.24-3.88-8.31-7.98-16.55-12.19-24.71 23.2-12.66 45.31-29.23 58.88-52.39z" fill="#323136" stroke="#323136"/><path d="m346.3 501.97c4.12-1.95 8.25-3.86 12.41-5.7 33.93 22.64 74.96 31.91 115.2 34.32 48.06 2.54 97.39-3.77 141.4-24.01 3.79 6.81 7.21 13.82 10.57 20.86-8.35 3.87-16.53 8.16-25.21 11.28-18.25 6.66-37.01 12.18-56.27 15.01-41.84 6.67-85.65 4.97-125.78-9.37-24.75-8.41-47.69-21.73-68.13-37.94-1.03-.62-2.09-1.16-3.18-1.63-.33-.95-.67-1.89-1.01-2.82z" fill="#c6c4d9" stroke="#c6c4d9"/><path d="m336.79 506.76c3.12-1.7 6.32-3.24 9.51-4.79.34.93.68 1.87 1.01 2.82 4.1 12.57-2.19 25.67-10.12 35.28-2.64 3.63-6.69 6.15-8.92 10.04.37 5.1 2.93 9.73 3.59 14.79 1.6 8.62-.79 17.82-6.31 24.63-8.33 10.5-22.23 15.76-35.45 14.89-10.6-.66-20.6-5.41-28.69-12.15-1.59-1.31-3.15-2.64-4.73-3.94l-.15-.13c2.81-5.1 4.98-10.54 8.2-15.42 7.63-11.76 16.2-22.99 26.45-32.6 13.36-13.47 29.58-23.51 45.61-33.42z" fill="#404040" stroke="#404040"/><path d="m347.31 504.79c1.09.47 2.15 1.01 3.18 1.63 20.44 16.21 43.38 29.53 68.13 37.94 40.13 14.34 83.94 16.04 125.78 9.37 19.26-2.83 38.02-8.35 56.27-15.01 8.68-3.12 16.86-7.41 25.21-11.28 16.7 36.07 26.75 75.71 25.83 115.62-.58 14.81-2.75 29.63-7.14 43.82-.24-4.66.83-9.24.81-13.88.2-6.39-1.04-12.7-1.52-19.05-.59-8.49-2.7-16.87-6.09-24.68-3.59-7.67-6.25-15.84-11.1-22.86-4.4-7.1-10.66-12.69-16.11-18.92-9.48-10.35-21.93-17.97-35.46-21.69-7.67-1.96-15.14-4.91-23.09-5.6-10.36-1.3-20.86.11-30.86 2.93-7.32 1.17-14.7 2.47-21.48 5.58-7.37 3.56-15.18 6.34-21.91 11.08-6.39 4.14-11.42 9.91-17.15 14.85-6.6 5.91-11.04 13.65-16.3 20.67-3.96 5.36-6.43 11.59-9.46 17.48-4.56 8.22-6.57 17.47-9.58 26.3-2.31 7.6-2.38 15.6-3.59 23.41-1.37 9.84.57 19.65 1.29 29.45.9 8.59 3.7 16.84 7.28 24.66 2.3 6.06 4.9 12.02 8.14 17.65-20.52-9.15-35.82-28.15-42.67-49.32-.88-10.06 4.65-19.85 2.64-29.96 17.71-20.62 18.8-52.88 3.92-75.35-7.26-11.47-18.91-20.32-32.17-23.48-2.98-.63-6.18-1.14-9.13-.13-1.73 1.51.9 2.66 2.01 3.18 8.83 3.94 17.52 8.58 24.67 15.19 11.8 11.14 17.98 27.73 16.97 43.86-5.82 7.55-11.01 15.9-19.07 21.33-8.43 6.31-19.35 7.97-29.61 6.85-8.46-.41-17.91-3.38-25.57 1.62-.82-.44-1.63-.91-2.42-1.35-6.09-10.19-18.43-13.32-29.02-16.62-19.72-5.93-33.82-24.34-37.65-44.13-.54-4.51-1.62-9.31.12-13.68 8.09 6.74 18.09 11.49 28.69 12.15 13.22.87 27.12-4.39 35.45-14.89 5.52-6.81 7.91-16.01 6.31-24.63-.66-5.06-3.22-9.69-3.59-14.79 2.23-3.89 6.28-6.41 8.92-10.04 7.93-9.61 14.22-22.71 10.12-35.28z" fill="#fff" stroke="#fff"/><path d="m635.07 527.75c6.64 4.67 15.08 6.79 23.1 5.24l.42-.1c3.65 8.76 10.36 17.04 19.85 19.62 5.01 1.63 10.13-.38 15.23-.32-12.03 10.85-25.97 19.74-41.39 24.9-4.31-16.9-10.07-33.42-17.21-49.34z" fill="#c6c4d9" stroke="#c6c4d9"/><path d="m521.15 563.13c10-2.82 20.5-4.23 30.86-2.93 7.95.69 15.42 3.64 23.09 5.6 13.53 3.72 25.98 11.34 35.46 21.69 5.45 6.23 11.71 11.82 16.11 18.92 4.85 7.02 7.51 15.19 11.1 22.86 3.39 7.81 5.5 16.19 6.09 24.68.48 6.35 1.72 12.66 1.52 19.05.02 4.64-1.05 9.22-.81 13.88-3.48 11.97-9.18 23.28-15.85 33.8-8.32 12.81-18.59 24.63-31.2 33.36-3.72.91-7.27 2.33-10.81 3.75-40.1 14.76-84.94 17.78-126.14 5.7-7.21-1.87-13.98-4.97-20.86-7.75-.45-.5-.89-1-1.32-1.48-3.24-5.63-5.84-11.59-8.14-17.65-3.58-7.82-6.38-16.07-7.28-24.66-.72-9.8-2.66-19.61-1.29-29.45 1.21-7.81 1.28-15.81 3.59-23.41 3.01-8.83 5.02-18.08 9.58-26.3 3.03-5.89 5.5-12.12 9.46-17.48 5.26-7.02 9.7-14.76 16.3-20.67 5.73-4.94 10.76-10.71 17.15-14.85 6.73-4.74 14.54-7.52 21.91-11.08 6.78-3.11 14.16-4.41 21.48-5.58z" fill="#ffadb0" stroke="#ffadb0"/><path d="m256.68 588.33c1.58 1.3 3.14 2.63 4.73 3.94-1.74 4.37-.66 9.17-.12 13.68 3.83 19.79 17.93 38.2 37.65 44.13 10.59 3.3 22.93 6.43 29.02 16.62-7.41-2.73-15.1-4.82-22.96-5.76-13.6-2.33-27.58-6.48-38.07-15.87-8.72-7.5-15.24-18.35-15.39-30.09-.48-9.14 1.22-18.36 5.14-26.65z" fill="#c6c4d9" stroke="#c6c4d9"/><path d="m385.56 659.58c8.06-5.43 13.25-13.78 19.07-21.33-.67 12.22-4.9 24.88-14.08 33.35-8.01 7.66-17.79 13.57-28.49 16.59-3.42.78-7.39 1.24-10.48-.79-3.78-2.44-6.61-6.02-9.39-9.48-3.22-4.05-7.37-7.26-11.81-9.87 7.66-5 17.11-2.03 25.57-1.62 10.26 1.12 21.18-.54 29.61-6.85z" fill="#ffadb0" stroke="#ffadb0"/><path d="m222.06 660.68c9.18-6.2 20.6-7.36 31.39-6.71-5.86 1.28-11.84 2.49-17.15 5.39-2.35 1.12-4.54 2.94-7.27 2.94-2.35-.41-4.69-.93-6.97-1.62z" fill="#fff" stroke="#fff"/><path d="m253.45 653.97c3.79-.11 7.61-.08 11.4-.04 6.04 4.42 12.79 7.76 19.82 10.33-18.54 1.02-37.23.57-55.64-1.96 2.73 0 4.92-1.82 7.27-2.94 5.31-2.9 11.29-4.11 17.15-5.39z" fill="#afafaf" stroke="#afafaf"/><path d="m222.2 660.05-.14.63c2.28.69 4.62 1.21 6.97 1.62 18.41 2.53 37.1 2.98 55.64 1.96 6.08 1.68 12.23 3.3 18.49 4.29-10.69.43-21.39-.38-32.09.08-19.06.09-38.15-.18-57.13-2.06 1.49-3.3 5.83-3.95 8.26-6.52z" fill="#838383" stroke="#838383"/><path d="m236.42 676.03c22.18.04 44.38.76 66.57.18 6.87-.05 13.75-.39 20.62-.18.08 1.56.18 3.14.29 4.72-22.77 2.8-45.76 2.73-68.67 3.09-4.91.48-9.85-.35-14.76.26-.48 10.88-5.86 20.77-11.63 29.73-2.89 4.75-7.53 8.38-9.36 13.77-6.24 15.96-7.25 33.35-7.95 50.3-.76 25.03.52 50.09 2.99 74.99.99 4.37 6.66 5.23 10.39 4.22.04-11.54-.36-23.09.11-34.62 5.53 13.18 14.3 25.49 27 32.57 14.03 7.65 30.21 9.76 45.91 10.97-22.31 2.04-44.94.27-66.78-4.64-11.62-2.79-23.25-6.07-33.99-11.38-2.1-36.16-.82-72.46 2.56-108.49.41-2.77.95-5.68 2.89-7.81 7.49-8.62 14.13-17.92 21.56-26.57 3.86-4.84 8.26-9.56 10.28-15.52 1.2-5.1 1.54-10.38 1.97-15.59z" fill="#838383" stroke="#838383"/><path d="m375.01 691.95c8.61-4.39 16.61-10.02 23.35-16.97 2.01 10.11-3.52 19.9-2.64 29.96 6.85 21.17 22.15 40.17 42.67 49.32.43.48.87.98 1.32 1.48 4.66 7.63 11.12 13.96 18.15 19.42 5.77 4.58 10.99 10.42 18.21 12.71-37.72-2.74-74.89-14.68-106.75-35.14-.05-6.67-.56-13.36-2.03-19.87-1.4-6.22-6.25-11.32-6.34-17.89-.1-7.28 5.25-13.14 5.88-20.29 2.68-1.06 5.57-1.5 8.18-2.73z" fill="#c6c4d9" stroke="#c6c4d9"/><path d="m331.6 678.01c3.39 1.83 5.21 5.53 7.83 8.26-1.6 2.42-2.81 5.06-3.77 7.8-3.62-4.56-3.3-10.6-4.06-16.06z" fill="#c6c4d9" stroke="#c6c4d9"/><path d="m255.23 683.84c22.91-.36 45.9-.29 68.67-3.09.69 4.81.67 9.92 3.08 14.28 3.02 5.44 7.23 10.09 11.16 14.88 6.28 7.4 11.89 15.34 18.3 22.64 4.53 4.58 4 11.54 4.56 17.47 2.26 25.96 3.27 52.03 2.71 78.09-.22 7.36-.29 14.75-1.25 22.07-20.22 9.33-42.4 14.11-64.53 15.85-15.7-1.21-31.88-3.32-45.91-10.97-12.7-7.08-21.47-19.39-27-32.57.54-21.73 2.64-43.65 9.13-64.48 4.19-13.96 10.64-27.1 14.93-41.02 2.99-10.84 6.96-21.7 6.15-33.15m57.94 59.34c-6.66 3.11-7.34 11.45-7.13 17.89.32 21.11 3.06 42.13 6.78 62.89.16 3.11 4.35 4.78 6.48 2.38 1.62-2.48 1.86-5.54 2.62-8.34 3.51-16.47 6.69-33.15 6.89-50.05-.08-6.67.52-13.83-2.73-19.92-2.29-4.55-8.16-7.17-12.91-4.85z" fill="#afafaf" stroke="#afafaf"/><path d="m240.47 684.1c4.91-.61 9.85.22 14.76-.26.81 11.45-3.16 22.31-6.15 33.15-4.29 13.92-10.74 27.06-14.93 41.02-6.49 20.83-8.59 42.75-9.13 64.48-.47 11.53-.07 23.08-.11 34.62-3.73 1.01-9.4.15-10.39-4.22-2.47-24.9-3.75-49.96-2.99-74.99.7-16.95 1.71-34.34 7.95-50.3 1.83-5.39 6.47-9.02 9.36-13.77 5.77-8.96 11.15-18.85 11.63-29.73z" fill="#fff" stroke="#fff"/><path d="m203.26 692.11c3.12-1.55 6.9-2.7 10.32-1.5 2.54 1.78 2.92 5.24 3.75 8.01-.29-.04-.87-.11-1.16-.14-.94-1.31-1.65-2.81-2.82-3.92-1.54-.21-3 .51-4.45.92-1.5.9-2.32 2.84-1.56 4.5 1.29 3.63 2.86 7.23 2.98 11.15-.94 1.9-2.63 3.3-3.89 4.99.98-7.64-3.63-14.15-5.73-21.13-.55-1.63 1.6-2.13 2.56-2.88z" fill="#afafaf" stroke="#afafaf"/><path d="m341.96 702.02c.5-3.43 1.49-6.78 2.89-9.95 1.68 1.09 3.37 2.19 5.09 3.23-4.16.85-5.1 5.43-6.36 8.81-.63-.64-1.17-1.34-1.62-2.09z" fill="#838383" stroke="#838383"/><path d="m208.9 695.48c1.45-.41 2.91-1.13 4.45-.92 1.17 1.11 1.88 2.61 2.82 3.92.29.03.87.1 1.16.14l.3.03c.32 1.91.64 3.91-.9 5.46-1.84-3.43-2.84-8.91-7.83-8.63z" fill="#6c6c6c" stroke="#6c6c6c"/><path d="m352.12 695.97c2.28.32 4.59.45 6.89.45-.97 2.77-2.15 5.45-3.13 8.23l-.21-.08c-1.4-.65-2.91-.88-4.41-1.04 1.19-2.35 2.31-5.06.86-7.56z" fill="#838383" stroke="#838383"/><path d="m351.26 703.53c1.5.16 3.01.39 4.41 1.04-1.43 3.78-2.19 7.79-2.01 11.85-1.45-1.67-2.83-3.39-4.11-5.18.43-2.6.89-5.2 1.71-7.71z" fill="#afafaf" stroke="#afafaf"/><path d="m580.98 774.86c16.57-8.95 31.64-20.74 43.99-34.98-.72 5.78-2.38 11.39-3.26 17.14-1.06 5.3-1.38 10.71-2.37 16.03-.17-1.43-.36-2.84-.57-4.24-8.16 3.73-16.07 8.07-24.67 10.8-4.68-3.68-10.81-2.56-16.27-2.12.65-1.3 1.94-1.97 3.15-2.63z" fill="#323136" stroke="#323136"/><path d="m313.17 743.18c4.75-2.32 10.62.3 12.91 4.85 3.25 6.09 2.65 13.25 2.73 19.92-.2 16.9-3.38 33.58-6.89 50.05-.76 2.8-1 5.86-2.62 8.34-2.13 2.4-6.32.73-6.48-2.38-3.72-20.76-6.46-41.78-6.78-62.89-.21-6.44.47-14.78 7.13-17.89z" fill="#fff" stroke="#fff"/><path d="m586.71 757.79c3.54-1.42 7.09-2.84 10.81-3.75-5.08 4.6-11.06 8.08-16.92 11.59-31.35 18.36-68.61 24.39-104.53 22.24-7.22-2.29-12.44-8.13-18.21-12.71-7.03-5.46-13.49-11.79-18.15-19.42 6.88 2.78 13.65 5.88 20.86 7.75 41.2 12.08 86.04 9.06 126.14-5.7z" fill="#c68596" stroke="#c68596"/><path d="m370.23 763.07c10.89 6.15 21.93 12.15 33.63 16.63l-1.65-.65c1.43 5.15 2.13 10.84-.14 15.88-2.35 6.03-8.07 9.78-13.74 12.33-5.66 2.5-11.21 5.27-16.33 8.75-.07-17.66-.74-35.31-1.77-52.94z" fill="#323136" stroke="#323136"/><path d="m594.1 779.61c8.6-2.73 16.51-7.07 24.67-10.8.21 1.4.4 2.81.57 4.24-1.36 11.61-2.14 23.29-2.3 34.99-6.59-1.28-12.57-5.42-15.72-11.4-3.2-5.34-3.51-12-7.43-16.95z" fill="#404040" stroke="#404040"/><path d="m568.23 781.22c3.2-1.22 6.1-3.44 9.6-3.73 5.46-.44 11.59-1.56 16.27 2.12l-.21.08c-12.99 5.11-26.6 8.46-40.3 10.98-2.62 15.59-2.9 31.9 1.5 47.21.69 2.45 1.38 4.92 2.03 7.4-9.15-.91-18.06-3.52-26.32-7.54l-.14-.07c-2.58-14.73-2.93-29.89-.86-44.7 13.18-2.52 26.04-6.62 38.43-11.75z" fill="#c6c4d9" stroke="#c6c4d9"/><path d="m402.21 779.05 1.65.65c18.24 7.14 37.3 12.21 56.7 14.92-1.42 3.24-2.72 6.53-3.87 9.88-4.65-1.81-9.71-1.95-14.64-2.19-12.7-.45-25.77 1.6-37.05 7.71-3.98 2.09-5.86 6.45-7.64 10.33-4.23 9.79-3.68 20.77-2.07 31.09-8.94-2.3-16.86-7.23-23.91-13.04.28-7.46.37-14.93.62-22.39 5.12-3.48 10.67-6.25 16.33-8.75 5.67-2.55 11.39-6.3 13.74-12.33 2.27-5.04 1.57-10.73.14-15.88z" fill="#c6c4d9" stroke="#c6c4d9"/><path d="m553.59 790.67c13.7-2.52 27.31-5.87 40.3-10.98 3.92 4.95 4.23 11.61 7.43 16.95 3.15 5.98 9.13 10.12 15.72 11.4-.08 7.84.09 15.69.41 23.53-4.48 3.78-9.49 6.94-15.05 8.85-14.26 4.98-29.63 6.24-44.62 4.93-.16-.02-.5-.05-.66-.07-.65-2.48-1.34-4.95-2.03-7.4-4.4-15.31-4.12-31.62-1.5-47.21z" fill="#fff" stroke="#fff"/><path d="m405 810.02c11.28-6.11 24.35-8.16 37.05-7.71 4.93.24 9.99.38 14.64 2.19-4.76 13.78-7.72 28.12-9.77 42.53-15.64 8.29-34.31 9.75-51.23 4.78-.1-.09-.3-.28-.4-.37-1.61-10.32-2.16-21.3 2.07-31.09 1.78-3.88 3.66-8.24 7.64-10.33z" fill="#fff" stroke="#fff"/><path d="m602.4 840.42c5.56-1.91 10.57-5.07 15.05-8.85.03 7.33 2.6 15.15-.86 22.09-4.06 8.37-12.75 13.1-21.2 16.01-7.18 1.83-14.6 2.66-22 2.8-6.3-8.33-12.97-16.8-15.61-27.12 14.99 1.31 30.36.05 44.62-4.93z" fill="#ffadb0" stroke="#ffadb0"/><path d="m530.8 837.74c8.26 4.02 17.17 6.63 26.32 7.54.16.02.5.05.66.07 2.64 10.32 9.31 18.79 15.61 27.12-9.89.11-20.25-.96-28.98-5.92-7.97-7.45-11.66-18.34-13.61-28.81z" fill="#c68596" stroke="#c68596"/><path d="m371.38 838.4c7.05 5.81 14.97 10.74 23.91 13.04.1.09.3.28.4.37 1.53 8.21 4.87 15.99 9.13 23.14-9.25-1.8-19.23-3.76-26.39-10.34-3.62-3.11-4.49-7.92-6-12.17-2.76-4.18-.97-9.39-1.05-14.04z" fill="#c68596" stroke="#c68596"/><path d="m395.69 851.81c16.92 4.97 35.59 3.51 51.23-4.78-1.08 6.98-1.27 14.1-2.81 21-.52 3.22-3.87 4.43-6.55 5.35-10.57 3.33-21.88 3.05-32.74 1.57-4.26-7.15-7.6-14.93-9.13-23.14z" fill="#ffadb0" stroke="#ffadb0"/><path d="m197.64 855.78c18.13 8.08 37.66 12.7 57.33 15 36.26 3.5 73.83-.17 107.39-15-.44 6.76-1.09 13.5-1.88 20.23-.23 1.88-.85 3.87-2.48 5.01-4.51 3.33-9.89 5.19-15.11 7.09-15.76 5.36-32.25 8.45-48.8 10.07-18.78 2.07-37.71-.55-56.11-4.32-10.82-2.43-21.65-5.33-31.66-10.18-2.73-1.47-6.18-3.1-6.6-6.56-1.01-7.08-1.58-14.22-2.08-21.34z" fill="#838383" stroke="#838383"/></g></svg>