<svg height="512pt" viewBox="0 0 512 511" width="512pt" xmlns="http://www.w3.org/2000/svg"><path d="m512 256.5-256-256-256 256 70.328125 70.328125 185.640625-185.636719.03125-.03125 185.671875 185.667969zm0 0" fill="#4ed8df"/><path d="m512 441.460938-256-256-.03125.027343-255.96875 255.972657 70.328125 70.328124 185.640625-185.640624.03125-.027344 185.671875 185.667968zm0 0" fill="#4ed8df"/><g fill="#11a9c6"><path d="m441.671875 326.828125 70.328125-70.328125-256-256-.03125.03125v140.660156l.03125-.03125zm0 0"/><path d="m256 185.460938-.03125.027343v140.660157l.03125-.027344 185.671875 185.667968 70.328125-70.328124zm0 0"/></g></svg>